<?xml version="1.0" standalone="no"?>
<!DOCTYPE svg PUBLIC "-//W3C//DTD SVG 20010904//EN"
 "http://www.w3.org/TR/2001/REC-SVG-20010904/DTD/svg10.dtd">
<svg version="1.0" xmlns="http://www.w3.org/2000/svg"
 width="1064.000000pt" height="1124.000000pt" viewBox="0 0 1064.000000 1124.000000"
 preserveAspectRatio="xMidYMid meet">

<g transform="translate(0.000000,1124.000000) scale(0.100000,-0.100000)"
fill="#000000" stroke="none">
<path d="M5050 11034 c-25 -2 -103 -9 -175 -14 -1400 -113 -2727 -800 -3629
-1880 -710 -849 -1120 -1843 -1228 -2975 -17 -183 -17 -707 0 -890 123 -1291
647 -2419 1537 -3310 756 -757 1663 -1243 2736 -1464 325 -67 632 -96 1029
-96 582 0 1061 73 1596 241 551 173 1058 429 1555 786 278 200 678 573 903
843 608 730 982 1507 1166 2425 68 336 95 626 95 1020 0 580 -73 1063 -244
1605 -330 1052 -990 1981 -1887 2655 -551 415 -1209 729 -1874 895 -438 110
-783 154 -1245 159 -159 2 -310 2 -335 0z m780 -139 c392 -42 710 -108 1055
-217 987 -312 1845 -902 2507 -1723 136 -170 322 -445 445 -660 338 -590 565
-1279 643 -1950 87 -746 18 -1486 -201 -2180 -257 -811 -689 -1523 -1285
-2119 -597 -598 -1315 -1032 -2124 -1286 -570 -179 -1199 -261 -1778 -232
-218 12 -488 38 -623 62 -804 140 -1527 439 -2168 897 -255 183 -433 333 -656
558 -228 228 -376 402 -558 657 -755 1057 -1087 2365 -927 3657 173 1393 906
2665 2022 3507 813 613 1776 973 2796 1044 181 12 679 4 852 -15z"/>
<path d="M5010 10849 c-300 -18 -647 -73 -945 -149 -772 -196 -1439 -539
-2065 -1059 -148 -123 -478 -453 -601 -601 -520 -625 -863 -1295 -1059 -2063
-210 -824 -210 -1690 0 -2514 196 -769 539 -1438 1059 -2063 123 -148 453
-478 601 -601 519 -431 1067 -740 1675 -945 1078 -362 2213 -362 3290 0 519
175 1020 440 1454 769 367 278 720 631 998 998 483 637 831 1434 962 2204 149
873 85 1713 -193 2540 -426 1267 -1339 2323 -2531 2930 -819 417 -1735 609
-2645 554z m313 -292 c53 -67 111 -138 127 -157 l29 -35 1 138 0 137 -26 10
c-42 16 -17 30 57 30 53 0 69 -3 69 -14 0 -9 -12 -16 -27 -18 l-28 -3 -3 -197
c-2 -197 -2 -198 -25 -198 -12 0 -27 4 -32 8 -6 4 -71 81 -145 172 l-135 164
-3 -39 c-1 -22 1 -89 5 -150 8 -104 9 -110 31 -113 12 -2 22 -10 22 -18 0 -11
-16 -14 -71 -14 -52 0 -70 3 -67 13 3 6 14 13 26 15 21 3 22 7 21 130 0 70 -4
150 -7 177 -6 45 -10 50 -34 53 -27 3 -35 12 -21 25 3 4 36 7 72 7 l66 -1 98
-122z m-353 68 c0 -33 -4 -45 -15 -45 -8 0 -15 9 -15 19 0 29 -15 34 -82 26
l-60 -7 7 -72 c4 -39 8 -72 9 -73 1 -1 24 1 51 5 42 6 51 11 53 30 3 22 16 29
26 14 2 -4 6 -34 7 -67 3 -61 -13 -87 -25 -40 -6 23 -11 25 -56 25 l-50 0 1
-42 c0 -24 3 -61 7 -83 7 -39 8 -40 47 -37 90 6 103 11 110 42 11 51 33 37 27
-17 -2 -27 -5 -49 -6 -50 -3 -4 -271 -30 -275 -27 -2 2 2 10 8 18 10 12 8 48
-8 173 -11 87 -23 166 -26 176 -4 9 -18 17 -31 17 -14 0 -24 6 -24 14 0 13 57
23 230 39 95 10 90 12 90 -38z m959 19 c58 -8 108 -14 113 -14 14 0 5 -93 -9
-97 -7 -3 -13 9 -15 29 -3 31 -6 33 -52 41 -27 4 -50 6 -53 4 -4 -4 -35 -201
-46 -295 -5 -38 -3 -44 19 -54 24 -11 30 -23 17 -31 -5 -2 -46 1 -93 7 -83 11
-112 28 -59 34 22 3 28 10 33 35 10 62 28 308 22 314 -3 3 -28 8 -55 11 -48 4
-49 4 -56 -27 -9 -43 -40 -43 -31 0 3 17 6 40 6 51 0 17 6 18 78 12 42 -3 124
-12 181 -20z m-1359 -27 c0 -8 -11 -19 -25 -25 -14 -6 -25 -16 -25 -21 0 -31
51 -305 60 -322 7 -11 18 -18 25 -15 15 5 31 -11 21 -21 -3 -3 -43 -12 -88
-19 -87 -14 -124 -5 -74 17 23 11 27 18 22 43 -2 17 -13 79 -22 138 -10 60
-21 105 -25 100 -10 -10 -43 -126 -69 -244 -14 -60 -27 -98 -35 -98 -7 0 -32
26 -56 58 -64 86 -181 224 -185 220 -2 -3 12 -64 31 -136 19 -73 35 -134 35
-137 0 -3 14 -5 31 -5 52 0 28 -24 -39 -39 -69 -16 -89 -9 -52 19 l24 18 -44
164 -45 163 -29 0 c-16 1 -31 6 -33 12 -4 11 31 26 104 41 l41 10 107 -135
c59 -74 109 -132 111 -130 3 2 24 77 48 166 24 89 46 164 48 165 1 2 30 8 63
13 33 6 63 11 68 12 4 0 7 -5 7 -12z m2034 -94 c76 -21 151 -88 161 -146 18
-96 -36 -214 -118 -255 -117 -60 -294 -2 -336 111 -29 76 -2 195 57 252 59 57
129 68 236 38z m-2695 -90 c14 -49 14 -53 -2 -53 -8 0 -19 12 -26 26 -7 16
-17 24 -26 21 -7 -3 -32 -11 -55 -17 -25 -7 -40 -16 -37 -23 2 -7 26 -77 52
-157 26 -80 51 -150 56 -156 5 -6 21 -9 35 -6 20 4 25 1 22 -9 -4 -13 -135
-67 -165 -68 -7 -1 -13 6 -13 14 0 8 3 15 8 15 4 0 13 4 20 8 10 7 6 28 -18
98 -18 49 -43 122 -57 162 -14 39 -30 72 -36 72 -6 0 -31 -7 -55 -17 -42 -16
-43 -18 -37 -50 9 -49 -19 -43 -39 9 -20 50 -26 45 109 93 255 90 250 90 264
38z m3143 -60 c68 -25 127 -49 131 -53 10 -8 -31 -80 -45 -80 -5 0 -8 12 -6
27 2 21 -3 30 -27 44 -61 35 -74 30 -101 -35 -13 -33 -24 -62 -24 -66 0 -4 17
-12 37 -18 30 -9 40 -9 53 3 36 33 39 10 9 -64 -23 -53 -46 -64 -41 -18 3 22
-3 29 -34 42 -20 8 -39 14 -41 12 -2 -2 -14 -37 -28 -78 -24 -68 -24 -75 -9
-86 9 -7 21 -14 27 -16 6 -2 7 -8 3 -15 -9 -15 -186 47 -186 66 0 10 7 12 24
8 14 -3 28 -1 34 7 17 20 114 316 107 327 -3 5 -13 10 -21 10 -8 0 -14 7 -14
15 0 23 18 19 152 -32z m-3647 -128 c32 -31 33 -85 3 -133 l-22 -35 30 -24
c45 -37 158 -103 177 -103 32 0 17 -17 -32 -39 l-50 -21 -109 73 -110 74 34
27 c26 21 34 34 34 59 0 48 -24 77 -65 77 -39 0 -85 -18 -85 -34 0 -6 33 -76
73 -156 68 -138 73 -145 100 -142 52 5 28 -24 -53 -63 -80 -39 -108 -41 -76
-6 22 25 20 32 -63 199 l-65 133 -33 -6 c-25 -4 -33 -2 -33 8 0 9 50 37 123
70 176 79 184 81 222 42z m4235 -146 c0 -7 -11 -8 -29 -4 -27 6 -33 2 -55 -33
-39 -63 -137 -262 -132 -270 2 -4 32 -21 66 -37 l62 -29 17 23 c10 13 23 21
30 17 12 -8 6 -23 -27 -65 l-19 -24 -119 63 c-65 35 -121 65 -123 67 -3 2 5
10 17 19 19 13 162 289 162 313 0 5 -9 17 -21 25 -12 8 -18 19 -15 25 8 13
186 -73 186 -90z m-1803 -8 c768 -91 1528 -397 2138 -861 339 -258 673 -598
912 -931 450 -627 726 -1349 809 -2114 24 -222 25 -678 1 -905 -85 -797 -385
-1560 -867 -2199 -739 -980 -1843 -1604 -3071 -1738 -216 -23 -687 -23 -904 1
-889 96 -1721 455 -2400 1035 -130 111 -369 350 -476 476 -580 680 -930 1489
-1036 2390 -27 229 -24 748 5 987 106 874 461 1685 1031 2353 120 141 374 391
522 515 664 553 1500 908 2344 995 226 23 229 23 535 20 207 -3 332 -9 457
-24z m-2869 -213 c100 -74 176 -123 191 -124 44 -2 33 -18 -42 -61 -72 -41
-109 -43 -73 -4 17 18 16 20 -17 45 -19 14 -40 26 -48 25 -8 0 -41 -17 -74
-38 -62 -40 -65 -45 -50 -109 5 -20 10 -22 35 -17 46 10 36 -11 -22 -49 -54
-35 -79 -34 -57 2 11 17 7 54 -20 223 -32 194 -33 203 -15 216 10 7 20 13 22
13 2 0 79 -55 170 -122z m5068 6 c89 -42 154 -132 154 -209 0 -33 -45 -118
-81 -152 -91 -86 -209 -85 -316 3 -84 69 -104 161 -58 259 60 124 173 162 301
99z m-5453 -94 c14 -11 31 -36 37 -56 22 -64 -35 -164 -93 -164 -19 0 -19 2 6
28 17 17 27 39 27 57 0 32 -43 85 -69 85 -20 0 -81 -37 -81 -49 0 -5 43 -68
96 -141 91 -124 98 -132 125 -126 15 3 31 1 34 -3 6 -10 -125 -111 -144 -111
-14 0 -15 17 -1 25 6 3 10 14 10 25 0 19 -195 280 -210 280 -5 0 -12 -4 -15
-10 -8 -13 -35 -13 -35 0 0 11 145 122 203 156 51 29 77 30 110 4z m5878 -215
c42 -28 109 -95 109 -111 0 -19 -58 -67 -75 -60 -14 5 -14 8 1 31 15 23 15 27
-3 57 -10 18 -36 42 -57 52 -35 17 -42 18 -65 5 -42 -24 -40 -66 7 -120 80
-92 87 -117 52 -174 -47 -76 -151 -85 -237 -22 -27 20 -58 51 -68 70 l-18 34
33 42 c34 42 63 44 41 3 -26 -48 0 -106 61 -138 35 -18 70 -12 98 16 31 31 25
53 -35 127 -44 55 -55 75 -55 105 0 39 36 93 74 109 32 13 97 1 137 -26z
m-6257 -46 c10 -16 15 -37 12 -46 -6 -14 -8 -14 -24 1 -10 9 -22 16 -27 16
-11 0 -95 -70 -95 -79 0 -12 80 -101 90 -101 5 0 23 12 40 26 26 22 30 31 25
55 -10 45 14 36 59 -22 41 -53 41 -71 2 -50 -26 15 -49 7 -80 -28 -18 -20 -18
-21 12 -58 16 -21 41 -48 54 -60 l23 -22 53 49 c47 44 52 51 42 70 -6 12 -9
29 -5 38 4 12 13 6 35 -28 23 -35 27 -47 17 -57 -6 -7 -55 -48 -107 -92 -90
-76 -95 -79 -100 -56 -3 13 -46 70 -97 127 -124 140 -140 155 -155 140 -11
-11 -48 -17 -48 -8 0 14 230 215 245 216 6 0 19 -14 29 -31z m-242 -345 c61
-43 98 -115 98 -192 0 -85 -15 -115 -111 -222 -81 -91 -82 -92 -93 -67 -12 27
-215 211 -253 229 -18 9 -27 8 -42 -6 -27 -24 -39 -1 -14 27 11 12 59 66 107
119 135 150 212 178 308 112z m7001 -109 c0 -16 -36 -108 -78 -203 -56 -125
-75 -180 -71 -198 11 -41 -15 -28 -73 37 -40 45 -51 63 -42 72 8 8 14 8 23 -1
19 -19 26 -15 49 29 l21 42 -61 61 -61 61 -38 -21 c-37 -20 -39 -24 -27 -56
13 -33 -19 -19 -64 26 -43 44 -43 62 1 51 16 -4 80 16 198 64 96 38 186 69
200 68 21 -2 25 -7 23 -32z m287 -328 c0 -10 -20 -97 -45 -194 -25 -97 -44
-180 -43 -184 2 -4 52 26 111 68 79 54 108 79 104 91 -2 10 -6 23 -8 31 -2 7
1 15 6 17 16 6 97 -118 84 -131 -7 -7 -14 -5 -23 8 -7 9 -20 17 -28 17 -9 0
-86 -47 -172 -105 -201 -136 -198 -140 -127 140 28 110 51 206 51 213 0 11
-140 -93 -203 -152 -23 -21 -26 -29 -17 -45 13 -26 13 -31 -3 -31 -18 0 -90
97 -82 110 5 8 13 6 26 -6 23 -20 18 -23 186 110 99 79 115 100 92 123 -6 6
-8 17 -3 24 10 16 94 -77 94 -104z m-7888 -94 c15 -15 28 -33 28 -40 0 -16 -5
-16 -31 0 -18 11 -23 8 -45 -18 -14 -16 -32 -42 -39 -57 -14 -26 -14 -27 34
-62 27 -20 53 -36 59 -36 6 0 23 16 38 35 24 32 26 38 14 60 -22 42 -3 40 56
-5 40 -30 53 -45 45 -53 -8 -8 -14 -8 -23 1 -7 7 -17 12 -24 12 -11 0 -70 -78
-63 -84 2 -1 32 -22 67 -45 72 -48 66 -50 118 37 24 40 25 44 10 61 -17 18
-22 41 -8 41 4 -1 22 -14 41 -30 l35 -30 -54 -77 c-30 -43 -66 -95 -80 -115
-14 -21 -27 -37 -30 -38 -3 0 -10 10 -15 23 -6 12 -72 64 -149 115 l-139 93
-22 -21 c-16 -15 -25 -18 -30 -10 -7 11 15 46 141 227 16 23 31 42 33 43 3 0
18 -12 33 -27z m-205 -345 c48 -33 42 -64 -7 -38 -26 14 -80 -25 -108 -80 -27
-53 -25 -117 5 -159 25 -35 118 -81 162 -81 60 1 117 33 151 86 16 27 30 57
30 68 0 12 5 28 10 36 9 13 11 13 20 0 25 -37 -27 -167 -90 -224 -93 -84 -240
-67 -324 37 -29 36 -31 45 -31 115 0 60 5 87 24 124 25 52 96 138 114 138 6 0
26 -10 44 -22z m8394 -39 c67 -33 137 -136 165 -242 l13 -49 -45 -19 c-56 -25
-76 -16 -39 19 24 22 26 30 21 66 -9 55 -50 123 -89 147 -21 12 -50 19 -83 19
-95 0 -193 -93 -194 -183 0 -46 20 -95 49 -121 20 -18 22 -19 61 -1 39 17 40
19 34 56 -4 22 -3 39 2 39 10 0 84 -132 84 -150 0 -7 -8 -9 -19 -5 -12 3 -40
-4 -70 -19 l-50 -26 -49 55 c-121 136 -134 273 -37 370 72 72 159 88 246 44z
m-8686 -408 c-6 -29 -4 -31 77 -70 46 -21 117 -55 158 -75 l75 -36 16 21 c9
12 21 19 27 15 14 -8 -58 -166 -77 -166 -9 0 -11 7 -7 25 5 18 1 28 -16 39
-33 21 -277 126 -293 126 -8 0 -19 -9 -26 -21 -7 -14 -14 -18 -21 -11 -13 13
61 181 80 182 10 0 12 -8 7 -29z m8951 -22 c23 -45 115 -262 112 -264 -2 0
-21 -6 -43 -13 -30 -9 -41 -9 -47 1 -5 7 0 15 12 21 11 5 20 15 20 23 0 27
-43 113 -56 113 -7 0 -38 -11 -69 -24 l-55 -25 20 -43 c14 -32 26 -44 46 -48
42 -8 32 -23 -32 -47 -32 -13 -60 -23 -61 -23 -10 0 0 25 14 35 15 11 15 18 4
54 -6 23 -18 44 -25 47 -15 6 -146 -51 -145 -63 0 -4 12 -33 27 -63 23 -47 32
-56 60 -60 44 -7 38 -23 -14 -36 l-43 -11 -54 126 -54 126 36 6 c20 3 100 36
178 74 140 67 142 68 136 96 -8 39 12 37 33 -2z m-8741 -356 c19 -9 35 -22 35
-28 0 -6 -18 -59 -40 -118 -22 -58 -40 -110 -40 -116 0 -20 -20 -21 -38 -3
-18 18 -298 122 -327 122 -8 0 -17 -9 -20 -20 -3 -11 -13 -20 -22 -20 -8 0
-13 6 -11 13 3 6 17 49 33 95 18 50 34 82 43 82 10 0 12 -8 7 -29 -6 -26 -3
-30 47 -51 93 -40 273 -99 279 -92 9 10 39 103 39 121 0 9 -9 22 -20 29 -21
13 -27 32 -10 32 5 0 25 -8 45 -17z m8930 -106 c30 -88 28 -121 -5 -77 l-19
25 -158 -54 c-87 -30 -160 -55 -162 -57 -1 -1 7 -32 19 -68 21 -64 23 -66 56
-66 51 0 43 -25 -12 -37 -53 -12 -42 -27 -98 135 -42 120 -44 137 -18 123 14
-8 47 0 132 30 193 68 210 77 210 111 0 53 24 25 55 -65z m-9211 -227 c102
-39 155 -128 142 -240 -9 -74 -44 -138 -96 -175 -38 -27 -49 -30 -118 -30 -60
1 -87 6 -119 23 -82 43 -122 129 -104 226 34 182 141 253 295 196z m9316 -93
c0 -2 13 -57 29 -123 43 -174 46 -194 28 -194 -8 0 -29 -3 -46 -6 -24 -5 -31
-3 -31 9 0 9 9 19 20 22 23 7 26 38 9 98 -11 42 -19 44 -99 25 l-52 -12 7 -35
c10 -51 23 -71 46 -71 57 0 -39 -46 -103 -50 -15 0 -8 22 13 39 19 15 20 21
10 59 -13 48 -17 49 -107 25 -48 -13 -63 -21 -60 -33 37 -135 35 -130 66 -130
20 0 30 -5 30 -15 0 -11 -12 -15 -49 -15 l-48 0 -27 113 c-14 61 -29 122 -32
134 -6 21 -4 22 23 17 28 -5 159 26 306 73 43 13 48 18 43 38 -6 22 0 35 16
35 4 0 8 -1 8 -3z m-9530 -436 c37 -27 51 -60 48 -115 -3 -58 -28 -78 -28 -23
0 69 -88 103 -129 51 -23 -29 -28 -82 -8 -89 13 -5 293 -45 314 -45 8 0 18 12
24 27 19 50 28 10 17 -79 -8 -62 -15 -88 -25 -88 -7 0 -13 11 -13 24 0 18 -7
26 -27 30 -35 8 -294 46 -310 46 -7 0 -19 -12 -27 -27 -25 -47 -29 -6 -12 117
17 121 37 177 70 191 28 11 75 3 106 -20z m9604 -52 c42 -33 58 -76 64 -166
l5 -83 -42 -1 c-22 -1 -46 -2 -53 -3 -24 -2 -18 24 7 30 32 8 45 31 45 82 0
74 -65 118 -112 75 -14 -13 -18 -31 -18 -85 0 -76 -18 -131 -48 -147 -34 -18
-111 -13 -148 9 -49 31 -79 100 -79 182 0 36 3 69 6 72 11 11 108 11 109 1 1
-5 -9 -12 -22 -15 -50 -12 -71 -112 -33 -163 18 -26 68 -38 96 -23 29 14 37
42 38 129 1 62 4 71 30 98 25 24 38 29 79 29 35 0 57 -6 76 -21z m-8659 -3346
c21 -32 64 -95 96 -140 33 -44 59 -86 59 -92 0 -15 -74 -63 -78 -51 -2 6 4 20
13 30 19 21 15 43 -18 84 l-24 30 -119 -87 c-65 -48 -127 -93 -137 -101 -15
-11 -17 -22 -12 -45 12 -54 -17 -35 -72 49 -32 48 -49 81 -42 85 6 4 18 0 28
-9 10 -9 21 -16 26 -16 4 0 70 41 146 91 l139 91 -18 30 c-29 49 -47 61 -72
48 -15 -8 -25 -9 -32 -2 -7 7 2 19 28 36 22 13 42 25 45 25 3 1 23 -25 44 -56z
m7690 35 c36 -24 50 -56 18 -43 -46 19 -52 17 -79 -24 -15 -23 -25 -43 -23
-45 21 -20 275 -186 285 -186 6 0 17 7 24 15 15 18 30 20 30 4 0 -6 -21 -41
-47 -77 -27 -36 -51 -70 -54 -75 -13 -19 -30 3 -18 24 8 15 7 24 -3 36 -13 17
-242 182 -262 189 -12 4 -56 -57 -56 -80 0 -7 7 -19 15 -26 8 -7 15 -16 15
-21 0 -17 -25 -8 -57 19 l-32 28 67 94 c37 52 81 116 97 142 17 27 33 48 38
48 4 0 23 -10 42 -22z m-235 -365 c45 -40 39 -70 -7 -38 -20 14 -26 14 -56 1
-39 -16 -81 -67 -91 -109 -11 -48 10 -101 59 -146 25 -23 57 -46 71 -51 37
-14 101 -12 133 4 38 20 86 77 102 120 14 39 26 45 36 21 9 -25 -25 -100 -68
-149 -59 -67 -101 -89 -168 -89 -168 0 -273 172 -197 322 26 50 117 141 142
141 8 0 28 -12 44 -27z m-7196 -57 c86 -36 156 -134 156 -220 0 -81 -63 -167
-146 -202 -48 -20 -128 -18 -173 6 -57 29 -119 104 -137 167 -14 49 -14 58 1
103 38 115 192 191 299 146z m6860 -291 c30 -39 26 -67 -5 -39 -19 17 -21 16
-64 -26 l-44 -44 42 -47 c23 -26 47 -47 53 -48 5 -1 23 12 38 28 21 22 26 34
20 55 -3 14 -3 26 1 26 4 0 29 -19 57 -41 31 -27 46 -45 40 -51 -6 -6 -18 -6
-32 2 -18 10 -27 7 -56 -15 -19 -14 -34 -31 -34 -38 0 -12 100 -117 111 -117
4 0 29 25 55 55 44 52 46 57 34 80 -7 14 -10 28 -7 32 9 8 67 -46 67 -62 0 -6
-46 -56 -102 -111 -88 -85 -103 -96 -106 -77 -2 12 -58 79 -125 149 -116 120
-124 126 -144 113 -12 -7 -25 -10 -30 -6 -5 6 193 217 203 217 1 0 14 -16 28
-35z m-6355 -209 c28 -15 111 -99 111 -114 0 -4 -15 -23 -34 -41 -39 -38 -65
-35 -40 5 14 21 14 29 3 55 -13 33 -61 69 -91 69 -24 0 -58 -35 -58 -60 0 -12
23 -50 50 -86 51 -67 60 -97 39 -137 -35 -67 -99 -96 -170 -77 -48 13 -131 86
-149 131 -12 28 -11 32 21 65 45 47 80 46 44 -2 -20 -26 -19 -53 5 -91 21 -34
66 -63 100 -63 11 0 32 11 46 26 33 32 28 55 -31 135 -25 34 -45 72 -45 86 0
33 26 76 59 96 32 20 103 22 140 3z m6105 -52 c39 -47 25 -59 -25 -23 -13 10
-23 7 -53 -17 -20 -16 -36 -32 -36 -35 0 -6 73 -95 169 -206 43 -51 72 -65 86
-43 7 11 25 4 25 -9 0 -7 -108 -97 -137 -115 -24 -14 -35 5 -16 26 22 25 18
34 -101 186 l-88 112 -27 -19 c-47 -34 -55 -48 -43 -76 16 -34 -3 -43 -28 -13
-32 38 -34 58 -10 75 26 19 152 120 200 162 19 17 40 30 45 30 6 0 23 -16 39
-35z m-5681 -294 c9 -8 -39 -70 -54 -70 -5 0 -8 14 -7 31 3 25 -4 37 -35 62
-44 37 -52 34 -103 -34 l-34 -46 39 -27 c34 -24 42 -26 60 -15 36 23 35 0 -3
-56 -40 -57 -59 -64 -50 -16 5 22 0 33 -26 54 -17 15 -35 27 -39 27 -6 0 -28
-28 -94 -117 -5 -8 12 -25 54 -54 50 -34 65 -40 78 -30 25 18 41 24 47 18 7
-7 -47 -77 -59 -77 -4 0 -60 39 -125 87 -91 68 -112 88 -96 91 22 3 40 23 162
181 74 97 80 109 61 128 -6 6 -8 16 -5 22 5 8 176 -110 229 -159z m5362 -38
c84 -58 129 -162 106 -245 -33 -117 -179 -207 -287 -177 -77 22 -164 142 -164
227 0 37 31 106 64 141 87 93 193 113 281 54z m-5150 -100 c113 -73 125 -85
125 -124 0 -46 -47 -89 -103 -95 l-48 -6 7 -96 c3 -53 12 -109 20 -125 21 -43
8 -48 -46 -18 -57 32 -60 40 -60 189 0 105 0 105 23 98 44 -15 80 -9 104 19
13 15 23 36 23 47 0 25 -55 82 -73 77 -14 -5 -100 -131 -154 -227 -33 -58 -35
-65 -20 -76 19 -13 23 -35 7 -35 -8 0 -102 57 -159 97 -3 2 0 8 6 14 8 8 17 8
31 0 25 -13 30 -7 138 160 73 115 76 121 59 139 -18 20 -12 45 8 33 7 -4 57
-36 112 -71z m4649 -163 c30 -35 35 -93 11 -125 -8 -10 -15 -22 -15 -25 -1
-20 193 -113 220 -107 7 2 14 -2 16 -7 2 -6 -19 -23 -48 -39 l-53 -28 -103 61
c-56 34 -107 61 -112 61 -19 0 -10 16 21 39 26 20 30 28 27 63 -2 31 -10 46
-30 61 -25 19 -30 19 -65 5 -29 -11 -37 -19 -36 -36 2 -11 33 -82 70 -157 65
-131 68 -136 97 -133 57 6 36 -19 -51 -60 -54 -25 -90 -36 -92 -30 -2 6 4 17
13 23 9 7 16 18 16 25 0 15 -107 255 -128 288 -11 17 -22 22 -38 19 -13 -2
-25 1 -27 7 -5 14 219 125 255 125 18 1 35 -9 52 -30z m-4326 -18 c73 -35 96
-64 45 -59 -34 4 -38 -11 -48 -172 l-7 -123 91 83 c50 46 98 95 107 109 15 22
15 25 0 36 -15 11 -23 35 -11 35 2 0 29 -11 60 -24 57 -26 72 -46 32 -46 -15
0 -60 -36 -137 -108 -177 -167 -186 -175 -211 -167 -20 7 -21 12 -15 74 20
216 26 355 17 364 -12 12 -15 40 -3 35 4 -1 40 -18 80 -37z m3936 -131 c54
-20 74 -117 35 -171 -25 -35 -75 -63 -97 -54 -13 5 -11 9 9 22 13 9 27 22 31
27 22 31 -6 110 -42 119 -27 7 -80 -11 -80 -28 0 -13 91 -238 115 -286 13 -25
19 -28 46 -22 63 12 24 -21 -64 -56 -88 -35 -121 -35 -79 0 l24 19 -31 87
c-18 48 -46 120 -62 160 -29 68 -33 73 -61 73 -50 0 -27 19 72 62 144 61 148
62 184 48z m-3431 -91 c128 -46 129 -47 88 -109 l-16 -25 -3 32 c-3 27 -10 34
-54 53 -28 12 -54 18 -58 13 -10 -9 -50 -109 -50 -122 0 -5 20 -14 45 -21 41
-12 47 -11 59 5 7 10 18 15 23 12 14 -9 -28 -127 -46 -127 -9 0 -11 8 -7 25 6
23 2 28 -40 46 -25 11 -48 18 -51 16 -15 -15 -53 -141 -45 -149 5 -5 36 -18
68 -28 l59 -19 20 25 c12 13 26 24 33 24 15 0 16 1 -8 -53 l-21 -46 -112 40
c-62 23 -124 45 -139 51 -32 11 -36 24 -10 30 11 3 35 52 74 149 74 190 73
186 48 199 -27 15 -26 34 3 27 12 -3 75 -24 140 -48z m2858 -142 c66 -35 101
-98 106 -190 4 -62 1 -78 -19 -117 -45 -83 -185 -139 -277 -111 -103 30 -165
143 -147 265 20 130 214 218 337 153z m-2267 -44 c2 -10 22 -101 42 -202 36
-174 46 -203 76 -214 9 -3 10 -8 3 -15 -13 -14 -177 18 -183 36 -2 7 7 12 24
12 26 0 27 1 20 47 -3 25 -8 48 -11 51 -6 6 -126 31 -151 32 -14 0 -27 -12
-40 -36 -18 -34 -18 -36 -1 -48 18 -14 23 -36 8 -36 -4 0 -21 4 -37 9 -16 5
-41 12 -56 15 -34 8 -38 36 -5 36 23 0 83 72 207 253 40 57 60 77 76 77 13 0
25 -8 28 -17z m1826 -80 c0 -40 -12 -43 -29 -7 -11 25 -15 26 -58 20 -26 -3
-48 -8 -50 -9 -4 -5 46 -326 53 -338 3 -5 17 -9 30 -9 16 0 24 -5 22 -12 -5
-14 -163 -42 -186 -33 -18 7 -5 25 19 25 25 0 25 44 -1 214 -11 71 -20 130
-20 132 0 9 -73 3 -91 -6 -11 -6 -19 -21 -19 -35 0 -14 -4 -25 -9 -25 -10 0
-21 35 -21 71 0 26 1 27 103 39 56 7 131 18 167 25 75 14 90 6 90 -52z m-1455
24 c30 -54 121 -201 159 -256 l51 -74 6 39 c4 21 8 82 10 134 4 91 3 95 -19
105 -27 12 -23 30 6 29 104 -3 112 -5 112 -19 0 -9 -9 -15 -24 -15 -29 0 -31
-8 -46 -229 -6 -85 -13 -158 -16 -162 -2 -4 -13 -5 -25 -2 -26 7 -87 91 -181
246 -39 65 -74 114 -78 110 -11 -12 -42 -271 -35 -283 3 -5 15 -10 26 -10 11
0 19 -7 19 -16 0 -15 -31 -15 -122 2 -38 7 -37 34 1 34 27 0 29 2 40 73 7 39
18 116 25 170 l13 99 -23 10 c-24 11 -29 20 -19 30 5 4 117 -10 120 -15z m763
-62 c20 -12 43 -40 59 -72 53 -110 11 -239 -96 -295 -51 -27 -60 -28 -187 -28
-74 0 -134 3 -134 7 0 3 6 14 14 22 10 12 16 64 21 183 l7 168 -26 10 c-14 5
-26 14 -26 21 0 7 50 10 168 7 145 -3 171 -6 200 -23z"/>
<path d="M6490 10493 c-59 -22 -94 -96 -94 -200 -1 -77 1 -83 28 -112 34 -35
86 -56 121 -47 71 18 128 113 129 218 1 58 -2 70 -24 93 -41 45 -111 66 -160
48z"/>
<path d="M5085 10044 c-396 -31 -657 -76 -980 -169 -1057 -307 -1963 -1015
-2522 -1970 -273 -466 -466 -1010 -542 -1530 -38 -262 -45 -367 -45 -660 0
-365 24 -598 95 -920 239 -1086 881 -2034 1799 -2657 536 -364 1150 -604 1785
-698 245 -36 360 -44 640 -45 450 0 800 49 1220 170 1221 355 2231 1241 2747
2409 148 335 266 742 317 1091 39 272 45 359 46 650 0 457 -48 797 -170 1220
-355 1221 -1241 2231 -2409 2747 -401 177 -813 286 -1291 343 -123 15 -581 27
-690 19z m270 -226 c15 -51 30 -95 32 -98 3 -3 53 -7 111 -10 l106 -5 -87 -55
c-48 -30 -87 -59 -87 -65 0 -5 11 -48 25 -95 13 -46 22 -86 20 -88 -4 -5 -121
84 -130 98 -12 19 -32 10 -104 -46 -40 -31 -74 -55 -76 -52 -2 2 7 42 20 88
14 47 25 90 25 95 0 6 -39 35 -87 65 l-87 55 106 5 c58 3 108 7 111 10 2 3 17
47 32 98 16 50 31 92 35 92 4 0 19 -42 35 -92z m-831 -83 c30 -53 54 -85 64
-85 10 0 55 7 102 15 47 8 87 15 90 15 2 0 -28 -33 -69 -74 l-73 -73 41 -81
c23 -45 41 -86 41 -92 0 -6 -36 8 -80 31 -44 22 -86 39 -94 36 -7 -3 -38 -35
-67 -71 -55 -65 -74 -80 -65 -48 2 9 6 55 8 102 l3 85 -93 34 c-51 19 -90 36
-88 38 2 3 46 15 96 28 50 13 94 26 97 29 3 3 10 48 16 101 6 52 13 95 17 95
3 0 28 -38 54 -85z m1663 -10 c6 -53 13 -98 15 -101 3 -3 49 -17 102 -31 53
-14 94 -29 91 -32 -4 -3 -45 -19 -93 -36 l-87 -31 4 -102 c2 -56 1 -102 -1
-102 -2 0 -30 32 -62 70 -31 39 -63 70 -70 70 -7 0 -47 -18 -89 -40 -41 -22
-78 -40 -81 -40 -4 0 14 41 40 91 l46 92 -73 73 c-41 41 -71 74 -69 74 3 0 43
-7 90 -15 47 -8 93 -15 102 -15 11 0 34 30 64 85 26 47 51 85 54 85 4 0 11
-43 17 -95z m-2300 -272 c53 20 98 35 99 34 2 -1 -22 -38 -52 -82 -30 -43 -54
-82 -54 -85 0 -4 27 -42 60 -84 33 -42 56 -76 50 -76 -6 0 -43 9 -82 20 -40
11 -80 20 -88 20 -9 0 -34 -34 -59 -80 -25 -44 -47 -80 -51 -80 -4 0 -12 41
-18 92 -6 51 -17 95 -24 99 -7 4 -52 13 -100 20 -48 6 -88 15 -88 18 1 3 35
21 78 40 110 50 105 43 98 130 -4 41 -9 88 -12 105 -5 29 0 25 70 -48 l76 -79
97 36z m3095 -7 l-8 -88 95 -48 c107 -53 109 -48 -34 -70 -38 -6 -71 -13 -73
-14 -2 -2 -10 -46 -18 -97 -9 -52 -17 -95 -19 -97 -2 -2 -19 27 -39 64 -58
116 -48 111 -154 80 -50 -14 -93 -26 -97 -26 -3 0 24 36 60 80 36 43 65 82 65
86 0 3 -25 42 -55 86 -30 44 -55 81 -55 83 0 2 45 -14 100 -35 l99 -38 68 77
c44 50 69 71 71 61 1 -8 -1 -55 -6 -104z m549 -916 c186 -71 340 -157 459
-257 77 -65 206 -262 261 -399 31 -78 109 -312 109 -326 0 -20 -28 -1 -137 91
-219 183 -399 375 -548 581 -72 99 -203 257 -250 300 -31 29 -50 60 -36 60 5
0 69 -23 142 -50z m-4391 3 c0 -8 -23 -35 -129 -148 -31 -33 -126 -157 -213
-275 -114 -157 -184 -242 -260 -316 -113 -112 -346 -309 -354 -301 -3 3 15 67
40 143 25 77 50 162 57 189 16 66 39 112 113 220 127 186 218 261 466 385 169
84 280 125 280 103z m2239 -249 c27 -66 69 -166 94 -224 25 -58 61 -145 82
-195 20 -49 51 -121 70 -160 18 -38 36 -81 40 -95 4 -14 25 -61 45 -105 20
-44 40 -90 44 -102 6 -17 27 -28 106 -53 55 -17 157 -59 226 -94 l127 -64 236
95 c700 282 826 331 829 328 2 -2 -19 -55 -46 -117 -28 -62 -63 -144 -78 -183
-15 -38 -31 -74 -35 -80 -4 -5 -21 -46 -39 -90 -17 -44 -42 -102 -55 -130 -13
-27 -49 -111 -80 -185 -31 -74 -70 -168 -87 -208 l-32 -72 46 -93 c25 -50 60
-138 79 -194 l34 -102 475 -190 c261 -105 510 -205 553 -223 43 -17 74 -34 70
-38 -4 -5 -51 -24 -103 -44 -52 -19 -156 -61 -230 -91 -74 -31 -182 -74 -240
-96 -58 -22 -121 -47 -140 -56 -19 -9 -78 -33 -130 -54 -52 -20 -131 -52 -176
-70 l-81 -33 -33 -101 c-18 -55 -52 -140 -76 -188 -24 -49 -44 -93 -44 -100 0
-6 39 -101 86 -211 47 -111 95 -223 106 -250 10 -27 30 -72 43 -100 49 -104
214 -500 210 -504 -2 -2 -50 16 -107 40 -110 48 -245 102 -368 148 -41 15
-106 41 -145 58 -79 34 -178 74 -338 136 l-109 42 -106 -55 c-59 -30 -161 -73
-226 -95 l-119 -41 -32 -75 c-18 -41 -90 -210 -160 -375 -70 -165 -149 -350
-176 -411 -27 -62 -49 -116 -49 -121 0 -5 -6 -17 -13 -27 -12 -16 -16 -10 -42
56 -15 40 -45 111 -66 158 -42 93 -77 178 -133 315 -21 50 -48 113 -61 141
-13 28 -33 75 -45 104 -12 30 -31 77 -44 104 -13 28 -31 70 -41 93 -17 42 -19
43 -129 79 -61 20 -163 62 -226 94 l-114 59 -201 -81 c-110 -44 -328 -132
-485 -195 -157 -63 -307 -124 -333 -134 l-49 -19 7 22 c4 13 23 57 42 98 19
41 44 100 55 130 11 30 36 88 54 128 19 40 34 77 34 82 0 6 4 18 10 28 14 24
100 221 100 228 0 3 18 45 39 92 22 48 56 128 76 178 l36 90 -44 90 c-24 49
-59 135 -78 191 -31 95 -35 102 -68 116 -435 176 -978 395 -1019 410 -29 11
-49 24 -45 28 4 4 51 24 103 44 52 20 109 42 125 50 17 7 62 25 100 40 39 15
117 47 175 70 142 59 272 112 345 140 33 13 103 41 155 62 l94 39 37 105 c20
58 56 143 79 190 39 79 41 86 30 119 -14 38 -165 397 -230 545 -96 218 -208
490 -205 494 3 2 53 -16 112 -41 145 -61 250 -104 356 -144 49 -18 114 -45
145 -58 31 -13 89 -37 127 -51 39 -15 84 -34 101 -42 17 -7 75 -31 129 -51
l97 -37 124 62 c68 34 169 76 223 93 l99 31 202 472 c112 260 211 492 222 516
10 24 21 42 24 39 2 -3 26 -59 53 -124z m2863 -104 c65 -25 160 -94 241 -178
86 -87 130 -148 173 -237 66 -139 67 -145 71 -625 l4 -435 -32 55 c-42 72
-264 293 -404 400 -145 112 -283 246 -361 350 -72 96 -136 242 -159 364 l-13
71 21 -29 c125 -168 137 -179 417 -378 67 -47 159 -126 220 -187 75 -76 106
-101 108 -89 2 9 -24 115 -57 235 -33 120 -71 262 -85 316 -31 120 -90 235
-154 302 -26 28 -56 61 -67 74 l-20 24 25 -8 c14 -4 46 -15 72 -25z m-5872
-36 c0 -3 -22 -26 -48 -52 -91 -89 -146 -214 -202 -459 -36 -160 -48 -203
-101 -373 -48 -153 -50 -185 -6 -106 49 90 159 200 360 357 199 156 303 251
349 317 38 55 62 57 52 5 -19 -106 -104 -278 -198 -403 -76 -101 -226 -248
-351 -345 -162 -125 -287 -258 -353 -373 -16 -30 -32 -50 -35 -45 -3 4 -5 76
-6 158 0 83 -5 195 -10 250 -16 155 -13 291 9 422 26 150 51 226 102 305 46
71 182 216 243 258 89 61 195 107 195 84z m6442 -501 c78 -82 184 -269 234
-415 81 -236 88 -639 14 -843 -43 -122 -50 -143 -90 -305 -43 -171 -85 -309
-100 -323 -4 -5 -20 29 -35 75 -59 177 -145 328 -332 579 -135 182 -213 300
-252 384 -67 142 -141 396 -115 395 5 -1 25 -21 44 -46 19 -24 85 -93 145
-151 285 -276 329 -322 375 -389 56 -81 81 -134 99 -211 7 -29 16 -53 20 -53
9 0 17 249 27 765 7 322 6 332 -16 405 -12 41 -29 89 -39 105 -42 74 -34 84
21 28z m-7068 -105 c-59 -150 -68 -347 -27 -623 13 -90 18 -182 17 -370 0
-137 -3 -269 -7 -292 -12 -72 10 -48 28 30 23 99 115 283 188 375 69 89 178
198 277 278 38 30 94 86 126 125 31 38 60 69 65 69 48 0 -98 -411 -194 -548
-91 -129 -293 -433 -344 -516 -53 -87 -103 -198 -138 -304 -9 -29 -18 -52 -20
-50 -2 2 -19 64 -38 138 -19 75 -65 219 -101 320 -76 213 -101 301 -115 420
-29 230 3 516 75 664 94 192 204 366 233 366 5 0 -7 -37 -25 -82z m7533 -1095
c27 -103 28 -118 28 -338 0 -212 -2 -240 -27 -355 -53 -242 -100 -356 -217
-518 -176 -244 -394 -532 -399 -527 -3 3 -4 74 -3 157 2 185 -11 268 -74 468
-151 477 -251 998 -205 1070 11 18 11 19 44 -60 36 -85 146 -286 208 -378 60
-88 154 -295 173 -377 7 -33 16 -109 19 -170 4 -60 11 -114 15 -118 5 -5 18
36 31 90 28 123 103 335 168 478 97 214 154 425 167 625 4 52 9 102 12 110 7
22 27 -31 60 -157z m-7906 -128 c13 -101 21 -129 89 -300 47 -117 77 -187 158
-371 46 -104 64 -168 93 -327 36 -202 45 -199 51 16 6 187 19 240 115 450 30
67 72 160 93 207 81 182 201 400 221 400 11 0 11 -153 -1 -245 -39 -310 -97
-565 -210 -920 -34 -110 -50 -231 -50 -391 0 -127 -7 -184 -21 -184 -5 0 -17
17 -28 39 -24 47 -159 228 -191 256 -38 33 -139 172 -196 268 -59 100 -135
273 -170 387 -77 252 -75 650 4 903 l16 52 8 -75 c4 -41 13 -115 19 -165z
m7069 -858 c0 -94 22 -261 60 -457 41 -207 48 -327 26 -455 -19 -110 -53 -219
-92 -297 -55 -108 -8 -57 129 144 89 129 179 235 371 438 243 256 325 384 357
558 13 67 19 79 30 61 16 -25 10 -224 -10 -341 -56 -322 -215 -593 -497 -841
-118 -104 -734 -520 -749 -506 -2 2 10 31 27 64 16 33 38 87 50 120 33 98 86
378 98 513 27 306 52 554 66 642 24 149 106 430 125 430 5 0 9 -33 9 -73z
m-6250 -70 c51 -116 112 -475 150 -892 33 -355 60 -483 145 -675 25 -56 44
-107 43 -112 -2 -5 -62 29 -133 76 -72 46 -157 101 -190 122 -112 71 -400 278
-450 323 -173 157 -287 298 -368 457 -53 105 -75 168 -97 283 -23 119 -39 394
-23 404 6 4 15 -16 22 -51 13 -65 93 -232 146 -307 20 -27 119 -138 219 -245
287 -305 331 -356 433 -512 58 -89 83 -115 83 -88 0 5 -13 31 -29 57 -67 110
-85 225 -79 501 5 177 9 215 42 376 20 98 39 212 43 253 3 40 10 73 15 73 5 0
18 -19 28 -43z m5970 -701 c0 -7 -7 -33 -16 -57 -25 -71 -51 -192 -94 -438
-48 -279 -54 -304 -84 -383 -53 -142 -155 -309 -247 -403 -65 -67 -44 -69 34
-4 77 66 264 194 362 249 33 18 148 78 255 133 107 54 233 124 280 155 116 77
305 265 360 360 23 40 45 71 47 68 6 -6 -56 -212 -83 -273 -55 -127 -160 -280
-268 -391 -114 -118 -311 -269 -456 -349 -121 -67 -313 -127 -508 -158 -139
-23 -320 -61 -371 -79 -45 -17 -81 -21 -81 -10 0 4 26 34 58 69 111 118 213
301 282 505 185 545 218 615 455 943 54 74 75 92 75 63z m-5607 -190 c171
-229 239 -367 368 -743 93 -273 213 -495 334 -619 35 -36 48 -54 37 -54 -10 0
-69 11 -132 25 -63 14 -191 38 -285 55 -285 51 -386 81 -556 166 -224 112
-450 314 -602 539 -89 131 -207 408 -184 431 2 3 15 -12 28 -33 72 -119 197
-249 319 -332 82 -56 244 -148 325 -186 214 -98 380 -198 670 -405 39 -27 74
-50 79 -50 5 0 -40 48 -101 108 -92 90 -117 122 -160 202 -65 119 -128 322
-148 473 -20 159 -61 356 -95 467 -17 52 -30 98 -30 102 0 25 30 -8 133 -146z
m5045 -653 c-1 -5 -24 -46 -50 -93 -26 -47 -67 -131 -92 -186 -92 -209 -220
-396 -316 -463 -50 -35 -145 -84 -270 -139 -22 -9 -22 -11 -5 -11 43 -1 834
92 975 115 228 37 379 103 522 228 47 42 89 76 92 76 4 0 -1 -15 -10 -32 -112
-217 -379 -446 -640 -548 -201 -79 -353 -100 -580 -82 -134 11 -434 67 -674
127 -97 24 -178 40 -262 50 -27 4 -48 10 -48 14 0 5 30 14 68 21 243 45 422
155 715 439 199 192 411 382 496 444 58 44 87 58 79 40z m-4539 -60 c79 -57
273 -228 500 -444 204 -193 262 -242 326 -278 60 -34 202 -92 347 -141 l108
-37 -103 -22 c-56 -13 -217 -51 -357 -86 -328 -82 -389 -90 -645 -90 -244 1
-317 14 -490 92 -236 107 -481 320 -599 521 -15 26 14 10 90 -51 189 -149 379
-211 739 -243 369 -32 496 -44 606 -59 177 -23 205 -17 89 20 -167 53 -300
165 -408 342 -34 56 -62 103 -62 106 0 8 -170 318 -194 354 -25 36 -33 63 -20
63 4 0 36 -21 73 -47z m2904 -894 c180 -27 325 -75 673 -224 94 -41 207 -83
251 -94 166 -43 438 -49 606 -15 38 7 118 36 179 64 60 29 113 49 116 45 9 -9
-94 -104 -186 -172 -137 -102 -324 -188 -462 -213 -88 -16 -319 -14 -420 4
-213 38 -419 136 -685 326 -139 99 -283 170 -362 177 -65 6 -173 -4 -173 -16
0 -4 64 -41 143 -84 78 -42 172 -98 209 -124 37 -26 102 -73 145 -103 103 -72
173 -131 173 -144 0 -6 -31 -43 -70 -81 l-70 -69 -71 72 c-139 141 -419 362
-535 421 -34 17 -84 34 -112 38 -48 5 -57 3 -124 -38 -185 -109 -366 -247
-513 -391 l-80 -78 -70 71 -70 70 30 25 c158 132 328 246 508 343 64 35 117
68 117 72 0 15 -50 22 -118 16 -130 -10 -225 -55 -492 -233 -221 -148 -402
-243 -523 -273 -40 -11 -121 -27 -181 -36 -115 -18 -221 -12 -378 21 -65 13
-205 71 -300 123 -113 63 -302 220 -285 238 4 4 40 -8 80 -26 172 -79 313
-106 501 -98 188 8 286 33 521 132 356 151 567 221 724 242 152 20 450 13 531
-12 87 -27 126 -29 193 -10 148 42 421 58 580 34z m-1685 -898 c20 -6 58 -15
85 -22 26 -6 49 -15 52 -19 3 -4 -36 -22 -87 -41 l-91 -32 6 -104 c3 -57 4
-103 2 -103 -3 0 -116 136 -131 158 -2 3 -138 -35 -193 -54 -8 -2 -3 10 11 28
14 18 42 57 63 86 l38 53 -39 55 c-22 30 -47 68 -57 84 l-18 29 87 -29 c48
-17 93 -30 99 -30 6 0 38 37 71 83 l59 82 3 -107 3 -107 37 -10z m2211 112
c23 -35 43 -63 44 -63 1 0 38 14 82 30 44 16 86 30 93 30 7 0 -12 -36 -43 -80
-35 -49 -53 -85 -49 -92 4 -7 32 -44 62 -81 30 -37 53 -69 51 -71 -2 -2 -48 9
-102 24 l-99 27 -65 -78 c-35 -44 -67 -79 -69 -79 -2 0 -1 46 2 103 l6 102
-97 36 -98 36 102 28 101 27 0 106 c0 119 -6 120 79 -5z m-1513 -139 c10 -53
23 -98 29 -100 5 -2 53 -7 104 -11 l95 -8 -87 -53 c-48 -30 -87 -57 -87 -61 0
-8 36 -153 46 -185 4 -11 -25 7 -76 48 -45 36 -87 66 -92 66 -6 0 -48 -20 -94
-45 -45 -25 -85 -45 -88 -45 -3 0 14 41 40 91 l46 92 -73 73 c-41 41 -71 74
-67 74 15 0 164 -21 179 -26 16 -4 32 24 84 149 8 21 17 37 19 37 2 0 12 -43
22 -96z m797 -91 c3 -2 66 6 167 23 l35 5 -73 -74 -74 -74 46 -92 c26 -50 43
-91 39 -91 -3 0 -44 20 -90 45 -45 25 -87 45 -92 45 -4 0 -44 -29 -87 -64 -43
-36 -80 -63 -81 -62 -2 1 6 31 16 67 10 35 21 80 25 100 l6 36 -87 54 c-85 53
-86 54 -52 56 19 2 66 5 105 9 l71 5 17 94 c10 51 20 96 24 99 3 3 23 -35 44
-86 21 -50 40 -93 41 -95z"/>
<path d="M5165 7364 c-417 -45 -810 -245 -1077 -549 -195 -223 -323 -480 -385
-774 -24 -112 -27 -148 -27 -326 0 -178 3 -214 27 -326 150 -708 699 -1218
1417 -1314 380 -52 781 42 1115 259 102 67 180 132 277 232 94 96 125 136 193
239 394 600 359 1380 -87 1942 -245 307 -590 516 -984 593 -106 21 -370 34
-469 24z m434 -204 c300 -61 542 -190 756 -405 214 -214 341 -450 407 -760 31
-145 31 -407 -1 -554 -65 -306 -192 -542 -406 -756 -214 -214 -450 -341 -760
-407 -145 -31 -407 -31 -554 1 -306 65 -542 192 -756 406 -214 214 -341 450
-407 760 -31 145 -31 407 1 554 65 306 192 542 406 756 205 206 440 334 728
400 174 40 406 42 586 5z"/>
<path d="M5271 7081 c-7 -5 -30 -6 -51 -4 -21 3 -40 1 -44 -6 -4 -6 -19 -8
-36 -4 -17 3 -36 0 -45 -7 -8 -7 -26 -9 -43 -5 -20 4 -34 1 -44 -9 -9 -8 -30
-14 -48 -14 -19 1 -38 -5 -44 -14 -8 -10 -21 -14 -37 -11 -17 3 -32 -2 -44
-13 -10 -10 -28 -17 -40 -16 -14 2 -30 -6 -41 -20 -12 -14 -27 -22 -40 -20
-13 2 -29 -6 -40 -20 -11 -13 -27 -22 -36 -20 -10 2 -28 -8 -41 -22 -14 -14
-31 -26 -40 -26 -9 0 -24 -11 -35 -25 -11 -14 -27 -25 -36 -25 -9 0 -25 -13
-34 -30 -9 -16 -26 -31 -37 -32 -11 -2 -25 -14 -31 -27 -7 -13 -22 -28 -35
-35 -13 -6 -25 -22 -27 -34 -2 -13 -14 -27 -27 -32 -25 -9 -49 -43 -38 -53 3
-4 -6 -11 -21 -17 -18 -6 -28 -19 -32 -40 -4 -16 -15 -32 -25 -35 -19 -6 -34
-39 -25 -54 3 -5 -5 -16 -19 -25 -14 -10 -25 -26 -25 -39 0 -12 -9 -31 -21
-41 -14 -12 -20 -25 -16 -42 3 -17 -1 -28 -14 -35 -13 -6 -19 -21 -19 -43 0
-19 -7 -39 -16 -46 -8 -8 -14 -25 -12 -40 1 -15 -3 -35 -11 -43 -7 -9 -11 -29
-10 -45 2 -16 -3 -37 -10 -46 -8 -10 -11 -27 -8 -46 4 -16 2 -32 -4 -36 -6 -3
-9 -23 -8 -43 2 -20 -1 -48 -5 -64 -5 -18 -4 -32 4 -42 10 -12 10 -18 0 -30
-8 -10 -9 -24 -4 -42 4 -16 7 -44 5 -64 -1 -20 2 -40 8 -43 6 -4 8 -20 4 -36
-3 -19 0 -36 8 -46 7 -9 12 -30 10 -46 -1 -16 3 -36 10 -45 8 -8 12 -28 11
-43 -2 -15 4 -32 12 -40 9 -7 16 -27 16 -46 0 -22 6 -37 19 -43 13 -7 17 -18
14 -35 -4 -17 2 -30 16 -42 12 -10 21 -29 21 -41 0 -13 11 -29 25 -39 14 -9
22 -20 19 -25 -9 -15 6 -48 25 -54 10 -3 21 -19 25 -35 4 -21 14 -34 32 -40
15 -6 24 -13 21 -17 -11 -10 13 -44 38 -53 13 -5 25 -19 27 -32 2 -12 14 -28
27 -34 13 -7 28 -22 35 -35 6 -13 20 -25 31 -27 11 -1 28 -16 37 -32 9 -17 25
-30 34 -30 9 0 25 -11 36 -25 11 -14 26 -25 35 -25 9 0 26 -12 40 -26 13 -14
31 -24 41 -22 9 2 25 -7 36 -20 11 -14 27 -22 40 -20 13 2 28 -6 40 -20 11
-14 27 -22 41 -20 12 1 30 -6 40 -16 13 -12 27 -16 46 -12 18 3 29 0 33 -9 3
-10 20 -15 46 -15 22 0 40 -4 40 -9 0 -16 38 -23 59 -12 14 8 22 7 32 -5 9
-11 23 -14 46 -11 18 3 35 1 39 -4 3 -6 23 -9 43 -8 20 2 48 -1 64 -5 17 -5
32 -4 41 3 10 9 20 9 39 0 21 -10 31 -9 49 3 18 12 27 13 41 4 13 -8 24 -7 46
5 21 13 32 14 40 6 8 -8 20 -7 44 6 18 10 41 15 50 11 9 -3 28 1 42 10 13 9
38 16 55 16 19 0 33 6 37 16 4 11 13 14 29 10 17 -5 30 0 46 16 12 12 32 21
43 20 12 -2 29 6 40 18 10 11 29 20 41 20 14 0 30 10 40 24 8 14 27 26 42 28
16 2 31 12 37 25 5 13 20 23 35 25 15 2 29 12 35 26 5 12 17 22 26 22 17 0 49
30 49 46 0 5 14 15 30 21 19 7 30 18 30 31 0 13 9 22 26 26 16 4 29 17 35 36
6 16 19 32 30 35 11 4 22 19 26 36 3 16 14 31 24 34 10 4 22 18 26 33 3 15 17
37 30 49 12 12 23 31 23 41 0 10 9 27 20 37 12 11 20 28 18 39 -2 11 8 31 20
44 15 14 21 29 18 39 -4 10 2 25 15 39 15 16 20 30 16 46 -4 13 0 29 10 40 10
11 14 27 10 44 -3 17 1 33 10 43 10 10 13 26 10 48 -3 18 -2 33 3 33 14 0 22
38 12 56 -6 11 -5 25 4 42 9 17 10 31 3 43 -6 12 -5 27 3 44 9 19 8 30 -1 49
-10 17 -10 29 -3 43 8 14 7 27 -2 45 -9 17 -10 31 -4 42 10 18 2 56 -12 56 -5
0 -6 15 -3 33 3 22 0 38 -10 48 -9 10 -13 26 -10 43 4 17 0 33 -10 44 -10 11
-14 27 -10 40 4 16 -1 30 -16 46 -13 14 -19 29 -15 39 3 10 -3 25 -18 39 -12
13 -22 33 -20 44 2 11 -6 28 -18 39 -11 10 -20 29 -20 41 0 14 -10 30 -24 39
-13 9 -26 29 -29 45 -4 16 -15 31 -25 34 -11 4 -22 19 -25 35 -4 17 -15 32
-26 36 -11 3 -24 19 -30 35 -6 19 -19 32 -35 36 -17 4 -26 13 -26 26 0 13 -11
24 -30 31 -16 6 -30 16 -30 23 0 15 -33 44 -51 44 -8 0 -19 10 -24 23 -6 13
-21 23 -37 25 -16 2 -28 10 -28 17 0 18 -38 45 -55 39 -6 -3 -20 6 -29 20 -10
16 -26 26 -40 26 -12 0 -31 9 -41 20 -11 12 -28 20 -42 18 -13 -2 -28 5 -36
16 -9 12 -25 19 -45 18 -18 0 -33 5 -36 14 -3 8 -19 14 -36 14 -17 0 -42 7
-55 16 -14 9 -33 13 -44 9 -12 -3 -31 1 -47 11 -21 14 -30 15 -45 5 -16 -9
-23 -9 -35 4 -17 17 -50 20 -59 5 -4 -6 -16 -3 -31 7 -20 13 -29 14 -51 4 -18
-8 -29 -9 -37 -1 -12 12 -36 13 -55 1z m61 -58 c-9 -15 -7 -19 8 -19 15 0 18
5 13 25 -4 17 -1 28 12 37 37 27 74 -22 43 -55 -11 -11 -10 -13 4 -8 10 3 20
2 23 -3 4 -6 11 -10 16 -10 6 0 3 7 -5 16 -9 8 -16 19 -16 24 0 13 30 40 44
40 34 0 48 -51 19 -70 -13 -8 -13 -10 -3 -7 9 3 24 -1 35 -9 10 -8 26 -14 34
-14 10 0 6 5 -9 13 -17 8 -25 21 -25 37 0 21 5 25 30 25 27 0 30 -3 30 -30 0
-38 38 -68 76 -60 19 4 28 1 33 -11 4 -12 15 -15 37 -12 22 4 33 0 40 -14 5
-10 14 -18 20 -18 6 0 3 7 -5 16 -19 19 -20 36 -4 52 32 32 80 -7 54 -44 -12
-17 -11 -21 13 -38 14 -11 20 -13 14 -6 -29 31 2 79 41 64 19 -7 22 -60 4 -66
-7 -3 -6 -7 5 -11 11 -4 17 -1 17 8 0 8 9 19 21 25 26 14 49 -3 49 -36 0 -27
-34 -42 -55 -24 -9 8 -15 8 -15 2 0 -26 74 -23 84 4 7 18 40 18 56 -1 27 -32
-16 -68 -54 -45 -19 12 -20 11 -8 -2 20 -25 61 -29 73 -7 20 39 77 11 64 -31
-7 -23 -43 -27 -65 -7 -12 10 -12 9 -2 -4 17 -22 62 -31 69 -13 7 20 59 18 67
-2 4 -9 1 -26 -7 -38 -20 -32 -10 -67 24 -79 15 -6 30 -18 33 -27 2 -9 4 -6 5
7 1 28 29 45 53 32 22 -12 24 -55 3 -63 -8 -3 -15 -16 -14 -28 l0 -23 11 22
c17 36 59 40 72 7 13 -34 -21 -62 -55 -44 -10 6 -19 8 -19 6 0 -3 12 -12 28
-20 23 -12 29 -12 40 1 28 30 78 -10 56 -44 -15 -24 -38 -27 -58 -8 -9 9 -16
12 -16 6 0 -6 9 -15 20 -21 11 -6 20 -21 21 -33 0 -19 2 -19 11 6 8 23 15 28
37 25 20 -2 27 -9 29 -31 2 -19 -2 -29 -15 -35 -10 -4 -19 -18 -20 -32 -2 -25
-2 -25 9 -3 19 39 61 40 73 2 11 -35 -32 -64 -61 -41 -5 4 -2 0 8 -9 9 -9 14
-20 10 -25 -4 -5 3 0 16 11 18 15 27 17 40 9 27 -17 26 -45 -2 -71 -31 -28
-33 -53 -7 -77 11 -10 17 -25 15 -34 -5 -14 -4 -14 6 1 23 36 78 9 65 -33 -8
-25 -50 -27 -64 -2 -6 9 -11 12 -11 6 0 -6 6 -17 13 -23 8 -6 13 -23 12 -38
-1 -16 0 -20 2 -11 7 29 29 41 52 28 39 -20 15 -79 -26 -66 -15 5 -18 0 -17
-27 0 -17 4 -44 8 -59 6 -22 12 -26 25 -19 23 13 51 -5 51 -33 0 -26 -23 -40
-49 -31 -12 3 -17 -1 -17 -14 0 -15 4 -17 17 -10 27 14 49 0 49 -31 0 -31 -22
-45 -49 -31 -13 7 -17 5 -17 -10 0 -13 5 -18 15 -14 25 10 51 -5 51 -30 0 -28
-29 -48 -50 -35 -18 11 -43 -43 -34 -72 3 -10 0 -25 -6 -33 -7 -8 -10 -28 -8
-45 3 -18 -1 -35 -9 -41 -7 -6 -13 -17 -13 -23 0 -6 5 -3 11 7 14 24 56 22 64
-3 13 -42 -42 -69 -65 -32 -10 14 -11 14 -6 0 2 -9 -4 -24 -15 -34 -26 -23
-24 -50 6 -76 29 -25 32 -50 9 -69 -12 -10 -20 -10 -34 -1 -15 9 -22 8 -37 -6
-10 -9 -14 -14 -9 -9 29 22 73 -12 60 -47 -13 -33 -54 -29 -72 7 -11 22 -11
22 -9 -3 1 -14 10 -28 20 -32 13 -6 17 -16 15 -35 -2 -22 -9 -29 -30 -31 -32
-4 -45 25 -28 60 11 22 10 22 -4 4 -9 -11 -16 -28 -16 -38 0 -9 -9 -22 -20
-28 -11 -6 -20 -15 -20 -21 0 -6 7 -3 16 6 20 19 43 16 58 -8 22 -34 -28 -74
-56 -44 -11 13 -17 13 -40 1 -16 -8 -28 -17 -28 -20 0 -2 9 0 19 6 34 18 68
-10 55 -44 -13 -33 -55 -29 -72 7 l-11 22 0 -23 c-1 -12 6 -25 14 -28 20 -8
19 -51 -2 -63 -24 -13 -53 4 -54 32 -1 17 -2 18 -6 5 -2 -10 -10 -18 -16 -18
-6 0 -1 -7 11 -16 25 -18 29 -46 7 -64 -32 -26 -69 16 -46 52 10 16 10 19 -1
16 -7 -3 -15 -13 -17 -24 -2 -10 -8 -22 -15 -26 -8 -6 -8 -8 1 -8 17 0 34 -35
27 -54 -8 -20 -60 -21 -67 -2 -7 18 -52 9 -69 -13 -10 -13 -10 -14 2 -3 22 19
58 15 65 -8 13 -42 -44 -70 -64 -31 -12 22 -53 18 -73 -7 -12 -13 -11 -14 8
-2 38 23 81 -13 54 -45 -17 -20 -36 -19 -69 6 -29 21 -71 19 -71 -3 0 -7 5 -6
15 2 8 6 23 9 35 5 25 -8 27 -51 2 -64 -21 -11 -52 3 -52 24 0 9 -6 12 -17 8
-11 -4 -12 -8 -5 -11 18 -6 15 -59 -4 -66 -39 -15 -70 33 -41 64 6 7 0 5 -14
-6 -24 -17 -25 -21 -13 -38 27 -39 -26 -77 -56 -41 -10 12 -10 22 -1 43 11 25
10 26 -4 7 -11 -13 -25 -19 -45 -17 -21 3 -32 -2 -36 -13 -5 -11 -14 -14 -33
-10 -38 8 -76 -22 -76 -60 0 -27 -3 -30 -30 -30 -25 0 -30 4 -30 25 0 16 8 29
25 37 15 8 19 13 9 13 -8 0 -24 -6 -34 -14 -11 -8 -26 -12 -35 -9 -10 3 -10 1
3 -7 29 -19 15 -70 -19 -70 -14 0 -44 27 -44 40 0 5 7 16 16 24 8 9 11 16 5
16 -5 0 -13 -5 -16 -10 -4 -6 -11 -8 -16 -4 -6 3 -7 -5 -3 -22 9 -35 -18 -59
-48 -43 -15 8 -19 18 -15 38 5 21 2 27 -13 27 -15 0 -17 -4 -8 -19 15 -29 -21
-63 -51 -48 -23 13 -28 40 -10 58 9 9 7 11 -9 6 -13 -3 -19 -10 -15 -19 7 -19
-15 -44 -38 -44 -21 0 -38 26 -32 50 3 10 -2 20 -12 24 -10 3 -14 2 -10 -5 4
-5 4 -21 1 -35 -5 -20 -12 -25 -34 -22 -23 2 -27 8 -27 33 0 22 6 31 25 37 22
7 21 7 -6 3 -17 -2 -37 1 -44 8 -10 10 -10 8 -1 -10 14 -27 -15 -68 -41 -58
-23 9 -33 42 -18 60 10 12 9 15 -3 15 -9 0 -17 -10 -19 -22 -2 -18 -10 -23
-33 -23 -27 0 -30 3 -30 30 0 27 3 30 32 29 20 -1 30 2 27 8 -4 5 -19 8 -35 6
-20 -3 -34 1 -46 14 -9 10 -23 18 -32 18 -10 0 -7 -5 9 -13 32 -16 38 -52 11
-66 -36 -20 -70 14 -51 50 5 9 0 22 -13 34 l-20 20 13 -24 c10 -20 9 -26 -7
-43 -12 -11 -26 -16 -36 -12 -22 8 -32 41 -17 59 7 9 8 15 0 20 -5 3 -10 -1
-10 -9 0 -34 -62 -43 -74 -10 -13 35 21 61 57 43 21 -10 21 -10 3 5 -11 9 -27
14 -36 11 -9 -3 -19 4 -25 18 -14 31 -60 35 -83 6 -26 -31 -62 -18 -62 22 0
16 4 29 9 29 6 0 6 12 -1 30 -15 44 -54 51 -100 18 -34 -24 -66 34 -34 61 22
19 1 67 -34 79 -22 8 -30 7 -34 -4 -7 -18 -40 -18 -56 1 -30 36 20 73 58 43
15 -12 16 -11 3 5 -7 9 -20 17 -27 17 -8 0 -14 8 -14 18 0 9 -5 24 -10 32 -8
11 -9 9 -5 -10 7 -34 -7 -52 -36 -48 -34 4 -40 55 -8 66 15 6 19 11 10 16 -6
4 -18 2 -26 -4 -22 -18 -55 -3 -55 25 0 34 30 48 61 29 l24 -16 -24 22 c-14
12 -25 30 -26 41 -1 11 -8 25 -15 32 -10 10 -10 8 -1 -10 18 -36 -8 -71 -44
-57 -34 13 -25 74 11 74 8 0 11 6 8 15 -5 13 -8 13 -21 0 -8 -8 -18 -15 -23
-15 -11 0 -40 29 -40 40 0 11 29 40 40 40 5 0 16 -7 24 -16 9 -8 16 -12 16 -7
0 5 -9 17 -21 26 -16 14 -24 15 -34 7 -32 -27 -73 28 -43 58 18 18 35 15 59
-10 l21 -23 -11 23 c-6 12 -16 22 -21 22 -6 0 -10 7 -10 15 0 13 -3 13 -20 3
-24 -16 -55 0 -55 27 0 29 31 42 57 26 22 -13 22 -13 8 4 -8 9 -13 30 -12 45
2 15 -4 32 -13 40 -9 8 -13 21 -10 34 5 19 5 19 -5 4 -15 -25 -57 -23 -65 2
-13 41 43 69 64 33 6 -10 10 -13 10 -8 0 21 -25 42 -48 41 -13 -1 -28 7 -35
17 -16 25 5 53 37 50 17 -1 24 3 21 11 -3 8 -15 11 -29 9 -30 -6 -53 30 -34
53 14 17 56 19 62 2 2 -7 4 3 4 22 0 19 -2 29 -4 23 -7 -19 -51 -16 -62 4 -19
35 27 71 55 43 6 -6 10 -3 10 9 0 14 -7 19 -24 18 -31 -2 -51 26 -36 51 7 9
22 17 35 16 23 -1 48 20 48 41 0 6 -4 2 -10 -7 -21 -37 -77 -9 -64 32 8 25 50
27 65 3 10 -16 10 -16 5 3 -3 13 1 26 10 34 9 8 15 25 13 40 -1 15 4 36 12 45
14 17 14 17 -6 5 -38 -23 -81 13 -54 45 18 22 46 18 65 -7 l17 -23 -7 23 c-5
17 -1 28 12 38 16 13 15 13 -9 3 -21 -9 -31 -9 -43 1 -21 18 -19 47 6 60 16 9
25 8 40 -6 16 -15 19 -15 19 -2 0 9 7 18 15 22 8 3 15 10 15 16 0 6 -7 4 -16
-4 -8 -9 -19 -16 -24 -16 -11 0 -40 29 -40 40 0 13 30 40 45 40 8 0 18 -7 23
-16 8 -15 10 -15 15 0 4 10 1 16 -8 16 -12 0 -35 28 -35 44 0 8 31 36 40 36 5
0 15 -6 23 -14 12 -12 18 -11 43 11 20 17 22 20 5 9 -31 -19 -61 -5 -61 29 0
28 33 43 56 24 11 -9 18 -9 26 -1 9 9 8 12 -5 12 -23 0 -38 30 -26 52 12 23
55 23 63 2 4 -9 4 -26 1 -38 -5 -17 -4 -18 4 -6 6 8 11 23 11 33 0 9 6 17 14
17 7 0 20 8 27 18 13 15 12 16 -3 4 -28 -22 -63 -11 -66 20 -3 22 2 29 22 34
15 4 32 1 41 -6 23 -19 62 -4 73 29 8 23 7 32 -4 42 -18 15 -18 43 1 59 15 12
26 10 56 -11 26 -19 66 -3 77 31 7 18 7 30 1 30 -5 0 -9 13 -9 29 0 40 37 54
58 22 23 -33 92 -24 92 13 0 5 -6 2 -13 -8 -24 -33 -79 -1 -64 38 8 19 53 21
64 2 4 -7 19 -16 33 -20 24 -6 24 -6 3 5 -36 19 -40 60 -7 73 21 8 54 -11 54
-30 0 -8 5 -12 10 -9 8 5 7 11 0 20 -15 18 -5 51 17 59 10 4 24 -1 36 -12 16
-16 17 -23 7 -43 -10 -22 -10 -22 3 -6 10 12 22 16 39 12 17 -4 29 0 42 13 10
12 25 18 36 15 10 -3 27 0 37 5 14 9 11 10 -17 9 -33 -2 -35 0 -35 28 0 27 3
30 30 30 23 0 31 -5 33 -22 2 -13 10 -23 20 -23 12 0 13 3 4 12 -19 19 -14 46
10 59 18 10 24 8 40 -11 14 -17 16 -26 7 -43 -9 -18 -9 -20 1 -10 7 7 25 10
39 9 14 -2 19 -1 11 1 -46 14 -42 73 5 73 18 0 26 -7 31 -24 3 -14 4 -28 1
-33 -3 -4 14 -9 37 -9 22 -1 32 0 21 3 -30 7 -46 32 -34 54 18 35 80 11 66
-25 -4 -9 2 -16 15 -19 16 -5 18 -3 9 6 -35 35 17 82 53 47 14 -13 16 -22 8
-37z m348 -22 c0 -26 -25 -44 -50 -36 -25 8 -27 50 -3 64 23 12 53 -4 53 -28z
m79 -8 c13 -25 -5 -53 -34 -53 -15 0 -26 7 -30 20 -13 41 43 70 64 33z m-865
-9 c20 -19 20 -38 1 -54 -23 -19 -55 -3 -55 30 0 25 9 37 32 39 4 1 14 -6 22
-15z m-367 -220 c9 -24 -10 -49 -38 -49 -24 0 -36 23 -25 51 7 19 55 18 63 -2z
m1741 -76 c17 -17 15 -43 -4 -59 -31 -26 -70 25 -44 56 15 18 32 19 48 3z
m-1870 -54 c4 -27 -21 -47 -48 -39 -20 6 -28 44 -13 59 15 15 58 1 61 -20z
m2190 -456 c19 -19 14 -56 -8 -63 -41 -13 -69 43 -32 64 22 13 26 13 40 -1z
m-2530 -127 c8 -4 12 -19 10 -32 -2 -19 -9 -24 -33 -24 -33 0 -45 25 -25 50
14 17 29 19 48 6z m2601 -138 c13 -25 -5 -53 -34 -53 -15 0 -26 7 -30 20 -13
41 43 70 64 33z m0 -351 c20 -38 -31 -71 -59 -37 -6 8 -9 23 -5 35 8 25 51 27
64 2z m-21 -74 c18 -18 14 -46 -9 -58 -26 -14 -49 3 -49 35 0 32 35 46 58 23z
m-2573 -73 c0 -25 -4 -30 -24 -30 -28 0 -47 25 -38 49 5 12 16 16 34 14 24 -3
28 -8 28 -33z m2519 -91 c19 -7 21 -47 4 -62 -33 -26 -76 26 -46 56 14 14 20
14 42 6z m-2194 -489 c20 -25 8 -50 -25 -50 -24 0 -31 5 -33 24 -6 37 34 55
58 26z m130 -120 c20 -25 8 -50 -25 -50 -31 0 -43 20 -31 51 7 18 40 18 56 -1z
m145 -120 c0 -27 -3 -30 -30 -30 -21 0 -31 5 -33 18 -5 25 17 49 42 45 16 -2
21 -10 21 -33z m1094 -113 c20 -38 -31 -71 -59 -37 -6 8 -9 23 -5 35 8 25 51
27 64 2z m-91 -14 c30 -30 -4 -77 -41 -57 -20 11 -23 55 -4 62 21 9 32 8 45
-5z"/>
<path d="M5201 6914 c-28 -35 -26 -69 4 -99 30 -30 54 -31 89 -4 19 15 26 30
26 55 0 69 -78 101 -119 48z m79 -13 c22 -43 6 -91 -31 -91 -24 0 -44 62 -29
90 14 25 46 26 60 1z"/>
<path d="M5385 6924 c-23 -23 -19 -36 22 -71 34 -28 36 -32 19 -39 -14 -5 -24
-1 -38 15 l-18 23 0 -29 c0 -26 4 -29 34 -31 33 -2 66 17 66 40 0 5 -16 24
-35 41 -19 17 -35 34 -35 39 0 17 29 7 44 -14 l16 -22 0 29 c0 26 -4 30 -30
32 -16 1 -36 -5 -45 -13z"/>
<path d="M5018 6904 c-3 -3 1 -18 9 -34 8 -16 15 -47 16 -69 1 -39 2 -40 32
-34 55 11 75 22 75 43 0 25 -5 25 -31 -1 -11 -11 -25 -19 -32 -16 -13 4 -30
74 -23 100 3 12 -2 17 -18 17 -13 0 -25 -3 -28 -6z"/>
<path d="M5623 6843 c-21 -27 -44 -52 -52 -57 -11 -7 -11 -10 0 -17 21 -13 39
-11 33 5 -7 18 11 29 37 21 13 -5 19 -14 17 -28 -2 -18 3 -23 26 -25 24 -3 28
-1 19 10 -6 7 -15 41 -19 76 -3 34 -10 62 -15 62 -4 0 -25 -21 -46 -47z m23
-30 c-10 -10 -19 5 -10 18 6 11 8 11 12 0 2 -7 1 -15 -2 -18z"/>
<path d="M4823 6837 c-41 -20 -55 -37 -33 -37 15 0 50 -87 43 -106 -5 -15 -3
-15 25 0 l32 16 -21 21 c-21 21 -17 44 7 35 15 -6 18 3 8 28 -7 18 -25 22 -21
5 4 -18 -20 -21 -27 -4 -9 25 3 37 31 30 22 -5 23 -4 13 15 -6 11 -12 20 -13
19 -1 0 -21 -10 -44 -22z"/>
<path d="M5779 6836 c14 -17 -9 -83 -37 -104 -15 -11 -15 -14 -2 -22 20 -13
43 -12 35 1 -9 13 15 73 25 62 4 -4 13 -29 20 -55 7 -27 16 -48 20 -48 4 0 18
25 30 55 13 31 29 55 37 55 20 0 8 16 -17 23 -13 3 -20 1 -18 -6 3 -18 -12
-57 -22 -57 -5 0 -11 15 -15 33 -9 43 -32 77 -51 77 -13 0 -14 -3 -5 -14z"/>
<path d="M5288 6770 c-7 -11 -20 -20 -28 -21 -12 0 -12 -2 -1 -6 7 -3 22 -14
32 -24 24 -24 28 -24 69 6 19 14 27 25 19 25 -8 0 -20 9 -27 20 -7 11 -21 20
-32 20 -11 0 -25 -9 -32 -20z"/>
<path d="M4580 6770 c-9 -6 -10 -10 -3 -10 6 0 15 5 18 10 8 12 4 12 -15 0z"/>
<path d="M4660 6750 c-30 -30 -27 -83 6 -109 35 -27 65 -27 92 2 29 31 28 72
-3 102 -29 30 -68 32 -95 5z m67 -22 c26 -24 31 -75 9 -84 -38 -15 -92 60 -66
91 17 20 30 19 57 -7z"/>
<path d="M5195 6750 c-4 -7 -19 -10 -35 -6 -33 6 -64 -19 -36 -30 9 -3 23 -1
31 6 9 7 26 9 46 5 26 -6 30 -4 27 11 -4 21 -24 29 -33 14z"/>
<path d="M5427 6745 c-8 -19 8 -28 34 -20 19 7 20 7 2 21 -23 17 -30 17 -36
-1z"/>
<path d="M5497 6734 c-13 -13 5 -24 38 -24 19 0 37 -4 40 -10 11 -17 37 -11
33 8 -2 13 -11 16 -35 14 -17 -2 -34 1 -38 7 -7 12 -28 15 -38 5z"/>
<path d="M5045 6720 c-14 -22 12 -33 36 -16 13 9 18 16 12 16 -6 0 -18 3 -26
6 -8 3 -18 0 -22 -6z"/>
<path d="M5931 6704 c-28 -36 -26 -70 5 -99 34 -31 49 -31 85 -1 l29 25 -22
16 c-22 15 -23 14 -26 -4 -5 -30 -29 -46 -47 -31 -21 17 -19 56 5 80 34 34 80
20 80 -24 1 -21 1 -21 16 -1 14 18 13 22 -11 43 -37 31 -88 30 -114 -4z"/>
<path d="M4977 6703 c-12 -11 -7 -33 7 -33 7 0 19 6 25 14 9 11 8 15 -5 20
-19 7 -19 7 -27 -1z"/>
<path d="M5646 6691 c-3 -5 0 -13 7 -19 15 -13 42 1 33 17 -9 13 -33 15 -40 2z"/>
<path d="M4449 6663 c-13 -16 -12 -17 4 -4 9 7 17 15 17 17 0 8 -8 3 -21 -13z"/>
<path d="M4901 6666 c-9 -11 -8 -15 5 -20 20 -8 39 7 30 23 -10 15 -21 14 -35
-3z"/>
<path d="M5712 6658 c3 -7 14 -14 26 -16 16 -3 20 1 16 12 -7 19 -48 22 -42 4z"/>
<path d="M4830 6630 c-10 -19 -9 -21 12 -18 13 2 23 9 23 17 0 23 -23 24 -35
1z"/>
<path d="M4486 6621 c-15 -16 -15 -19 -1 -24 16 -7 21 -47 6 -47 -5 0 -17 7
-26 16 -15 15 -17 15 -35 -1 -27 -24 -25 -30 10 -33 45 -3 80 -20 88 -41 7
-20 7 -20 32 -1 18 14 21 20 9 20 -28 0 -50 36 -52 84 -2 51 -6 55 -31 27z"/>
<path d="M5780 6632 c0 -15 22 -31 35 -25 8 2 21 -7 30 -21 19 -29 55 -32 47
-4 -2 11 -14 18 -28 18 -13 0 -29 9 -36 20 -12 19 -48 28 -48 12z"/>
<path d="M6112 6633 c5 -13 -53 -83 -68 -83 -22 0 -17 -14 20 -49 25 -25 39
-31 55 -26 12 3 21 11 21 16 0 6 -8 8 -18 5 -11 -4 -25 1 -36 12 -14 17 -15
21 -2 31 18 15 36 6 36 -16 0 -15 2 -14 18 0 10 10 23 17 29 17 6 0 17 7 24
16 12 15 9 21 -25 50 -37 32 -59 43 -54 27z m49 -49 c10 -13 10 -17 -2 -25
-27 -17 -44 -4 -33 25 8 20 18 20 35 0z"/>
<path d="M4767 6603 c-4 -3 -7 -12 -7 -20 0 -20 28 -15 40 7 9 17 8 20 -8 20
-10 0 -22 -3 -25 -7z"/>
<path d="M4703 6554 c-7 -19 2 -28 22 -21 19 8 19 23 0 31 -9 3 -18 -1 -22
-10z"/>
<path d="M5918 6554 c-11 -10 3 -34 19 -34 8 0 13 7 11 17 -3 18 -20 27 -30
17z"/>
<path d="M6240 6518 c0 -18 -73 -78 -95 -78 -12 0 -7 -12 20 -45 33 -40 39
-43 59 -33 l21 13 -22 3 c-12 2 -27 10 -35 19 -11 13 -7 20 27 49 22 19 46 32
53 29 17 -6 15 3 -8 32 -13 16 -20 20 -20 11z"/>
<path d="M4640 6500 c0 -24 25 -27 34 -4 9 23 8 24 -14 24 -13 0 -20 -7 -20
-20z"/>
<path d="M5970 6499 c6 -10 10 -20 10 -23 0 -3 -148 -6 -330 -6 l-330 0 0 -88
0 -89 30 5 30 4 0 -291 0 -291 25 0 25 0 0 291 0 290 33 -3 32 -3 0 -288 0
-287 28 0 27 0 0 291 0 290 33 -3 32 -3 0 -288 0 -287 25 0 25 0 0 287 0 288
30 0 30 0 0 -288 0 -287 25 0 25 0 0 287 0 288 33 3 32 3 0 -290 0 -291 25 0
25 0 0 291 0 290 33 -3 32 -3 0 -288 0 -287 28 0 27 0 0 290 0 290 25 0 25 0
3 -547 2 -548 3 569 c2 561 2 569 21 552 25 -23 59 -13 67 20 11 44 -42 74
-74 42 -10 -10 -12 -8 -11 7 5 50 -1 62 -31 69 -21 4 -30 11 -30 25 0 12 -9
20 -25 23 -21 4 -23 2 -15 -13z m-534 -89 c0 -21 -29 -21 -37 0 -8 19 12 40
26 27 6 -6 11 -18 11 -27z m557 0 c-2 -9 -12 -16 -22 -16 -19 0 -24 24 -7 42
13 14 35 -4 29 -26z m-467 22 c15 -9 3 -37 -16 -37 -19 0 -31 28 -16 37 6 4
13 8 16 8 3 0 10 -4 16 -8z m90 0 c16 -10 3 -37 -18 -38 -10 -1 -16 2 -13 6 3
5 0 12 -6 16 -8 4 -7 9 2 15 17 11 21 11 35 1z m97 -22 c-3 -11 -10 -18 -17
-17 -16 3 -25 31 -13 39 17 11 35 -2 30 -22z m95 3 c2 -15 -2 -21 -15 -19 -22
1 -35 28 -19 38 17 12 31 4 34 -19z m88 19 c15 -9 3 -37 -16 -37 -19 0 -31 28
-16 37 6 4 13 8 16 8 3 0 10 -4 16 -8z m-413 -99 c-3 -7 -13 -13 -23 -13 -18
0 -21 15 -7 37 10 17 37 -6 30 -24z m90 1 c-6 -17 -30 -19 -35 -2 -3 7 0 18 6
24 14 15 37 -2 29 -22z m97 0 c0 -17 -37 -19 -42 -2 -3 7 0 18 6 24 13 14 36
0 36 -22z m93 -1 c-7 -17 -43 -17 -43 0 0 7 5 18 11 24 14 14 39 -5 32 -24z
m90 0 c-3 -7 -11 -13 -18 -13 -17 0 -26 25 -13 38 13 13 38 -7 31 -25z m90 1
c-6 -17 -30 -19 -35 -2 -3 7 0 18 6 24 14 15 37 -2 29 -22z m100 -1 c-7 -17
-40 -17 -46 0 -6 19 24 37 39 23 6 -6 9 -17 7 -23z m-659 21 c19 -7 9 -34 -14
-34 -21 0 -34 26 -17 34 7 2 13 5 14 5 1 1 8 -2 17 -5z"/>
<path d="M4337 6457 c-27 -33 -33 -47 -24 -56 15 -15 27 -14 21 3 -3 8 -1 17
5 20 13 8 81 -52 81 -72 0 -12 6 -10 25 8 27 26 33 42 11 34 -14 -5 -86 51
-86 67 0 5 7 9 16 9 9 0 14 5 12 12 -9 25 -26 17 -61 -25z"/>
<path d="M4571 6435 c-2 -16 -3 -39 -3 -50 1 -15 -1 -16 -4 -3 -7 21 -52 32
-70 17 -15 -12 -18 -37 -8 -63 9 -23 50 -19 68 6 15 20 16 -30 18 -562 2 -322
4 -467 5 -322 l3 262 200 0 200 0 0 -415 c0 -325 -3 -415 -12 -416 -7 0 30
-13 83 -28 115 -33 193 -65 236 -97 17 -13 33 -24 35 -24 2 0 2 224 1 497 -2
274 -3 532 -3 573 l0 75 -370 -3 -370 -2 -3 292 c-1 161 -4 280 -6 263z m533
-1030 c-4 -8 -8 -15 -10 -15 -2 0 -4 7 -4 15 0 8 4 15 10 15 5 0 7 -7 4 -15z
m69 3 c-6 -7 -11 -30 -11 -50 -1 -36 0 -38 28 -38 26 0 30 -4 30 -27 l0 -27
-16 22 c-20 29 -70 30 -95 0 l-19 -21 0 26 c0 23 4 27 30 27 29 0 30 2 29 43
-2 56 -1 57 17 57 12 0 14 -4 7 -12z m-40 -135 c-9 -3 -13 -26 -13 -64 l0 -59
-37 2 c-37 1 -37 1 -5 5 32 4 32 5 32 57 0 54 5 67 24 65 6 0 5 -3 -1 -6z m65
-18 c-3 -3 -9 2 -12 12 -6 14 -5 15 5 6 7 -7 10 -15 7 -18z m4 -60 c-2 -31 0
-34 30 -38 33 -4 33 -4 -4 -5 l-38 -2 0 47 c0 25 3 43 7 39 4 -4 6 -22 5 -41z"/>
<path d="M4996 6425 c-11 -8 -15 -15 -9 -15 7 0 14 4 18 10 3 5 13 6 22 3 11
-4 14 -3 9 5 -9 15 -17 15 -40 -3z"/>
<path d="M4918 6423 c6 -2 18 -2 25 0 6 3 1 5 -13 5 -14 0 -19 -2 -12 -5z"/>
<path d="M6340 6390 c0 -19 -80 -72 -97 -66 -20 8 -15 -11 13 -54 15 -23 35
-40 45 -40 25 0 24 16 -1 23 -26 7 -37 36 -19 48 21 13 34 5 32 -19 -3 -21 -3
-21 40 -2 23 10 43 22 44 27 2 4 -11 28 -27 53 -16 25 -30 38 -30 30z m28 -73
c2 -11 -3 -17 -16 -17 -20 0 -36 23 -24 34 11 12 37 1 40 -17z"/>
<path d="M4870 6355 c0 -30 3 -35 13 -26 15 12 27 5 27 -15 0 -24 -39 -23 -55
2 -21 32 -41 30 -76 -7 -26 -28 -29 -38 -28 -98 0 -78 21 -183 36 -188 6 -2
15 6 19 19 7 22 31 47 47 48 4 0 7 -9 7 -21 0 -11 5 -17 10 -14 6 3 10 1 10
-5 0 -6 -7 -13 -15 -16 -8 -4 -15 -14 -14 -23 0 -10 2 -11 6 -3 7 17 21 15 26
-5 4 -16 5 -16 6 1 1 15 4 16 16 6 10 -9 15 -9 15 -1 0 6 16 11 35 11 35 0 37
3 37 48 0 20 1 20 5 2 5 -24 20 -26 45 -4 17 16 20 15 45 -11 l28 -27 12 83
c7 46 10 105 7 131 -11 89 -71 127 -112 71 -23 -32 -42 -23 -42 21 0 17 -5 37
-12 44 -15 15 -55 16 -63 2 -5 -8 -11 -7 -21 1 -12 9 -14 5 -14 -26z"/>
<path d="M4252 6335 c-10 -21 -9 -25 5 -25 24 0 104 -50 98 -61 -11 -16 7 -10
21 9 16 20 18 46 4 37 -13 -8 -90 32 -97 50 -8 22 -18 18 -31 -10z"/>
<path d="M4190 6330 c-6 -11 -8 -20 -6 -20 3 0 10 9 16 20 6 11 8 20 6 20 -3
0 -10 -9 -16 -20z"/>
<path d="M4458 6293 c-11 -3 -18 -14 -18 -29 0 -13 -9 -29 -20 -36 -19 -12
-28 -48 -12 -48 15 0 31 22 25 35 -2 8 7 21 21 30 13 9 24 25 23 36 -1 10 -1
18 -2 18 0 -1 -8 -3 -17 -6z"/>
<path d="M6170 6266 c0 -8 9 -20 21 -26 18 -10 20 -9 17 12 -3 26 -38 39 -38
14z"/>
<path d="M4197 6231 c-24 -41 -21 -58 12 -92 35 -34 59 -36 95 -8 21 16 26 28
24 52 -2 17 -8 32 -14 34 -6 2 -9 -7 -6 -25 5 -35 -17 -55 -51 -47 -58 15 -76
85 -21 85 27 0 32 15 8 24 -25 10 -29 8 -47 -23z"/>
<path d="M6380 6211 c-5 -11 -10 -31 -10 -45 0 -31 -16 -42 -29 -19 -6 11 -6
24 1 36 9 17 7 18 -14 12 -30 -10 -35 -15 -21 -23 6 -4 12 -16 14 -26 2 -10
12 -24 22 -30 26 -17 51 4 61 53 5 22 13 41 18 41 15 0 21 -31 9 -43 -19 -19
-12 -27 14 -15 26 12 27 35 3 66 -16 19 -56 14 -68 -7z"/>
<path d="M6212 6198 c2 -13 9 -23 17 -23 23 0 24 23 1 35 -19 10 -21 9 -18
-12z"/>
<path d="M4374 6145 c-7 -17 4 -37 17 -30 12 8 12 45 -1 45 -6 0 -13 -7 -16
-15z"/>
<path d="M6242 6123 c2 -10 10 -18 18 -18 22 0 18 29 -3 33 -14 3 -18 -1 -15
-15z"/>
<path d="M4344 6075 c-3 -8 -3 -19 1 -25 10 -16 35 7 28 26 -7 18 -22 18 -29
-1z"/>
<path d="M6270 6056 c0 -7 6 -19 14 -25 11 -9 15 -8 20 5 3 9 4 20 0 25 -8 14
-34 11 -34 -5z"/>
<path d="M5026 6031 c-4 -5 3 -7 14 -4 23 6 26 13 6 13 -8 0 -17 -4 -20 -9z"/>
<path d="M4319 6003 c-1 -5 0 -18 1 -31 1 -13 -4 -30 -10 -37 -14 -17 -5 -50
10 -40 5 3 10 21 10 40 0 19 5 37 10 40 15 10 12 35 -5 35 -8 0 -15 -3 -16 -7z"/>
<path d="M6295 5990 c-4 -6 -1 -18 6 -26 11 -14 13 -14 21 0 15 26 -12 51 -27
26z"/>
<path d="M4902 5971 c-5 -3 -12 -16 -16 -28 -4 -13 -12 -23 -17 -23 -5 0 -9
-4 -9 -10 0 -6 43 -10 110 -10 105 0 137 9 88 25 -13 4 -27 6 -33 5 -5 -1 -15
6 -22 16 -13 17 -85 35 -101 25z"/>
<path d="M6314 5916 c-3 -9 -1 -23 6 -31 7 -9 9 -26 5 -45 -5 -23 -3 -30 9
-30 21 0 30 18 16 35 -7 8 -10 26 -6 39 7 29 -20 59 -30 32z"/>
<path d="M4292 5859 c-12 -18 -12 -23 -1 -30 20 -12 34 7 23 31 l-9 20 -13
-21z"/>
<path d="M4042 5850 c0 -14 2 -19 5 -12 2 6 2 18 0 25 -3 6 -5 1 -5 -13z"/>
<path d="M6591 5804 c0 -11 3 -14 6 -6 3 7 2 16 -1 19 -3 4 -6 -2 -5 -13z"/>
<path d="M4287 5783 c-2 -5 -2 -32 -1 -60 2 -78 3 -80 14 -63 6 8 8 31 4 51
-3 21 -1 40 5 43 6 4 8 13 4 21 -6 16 -19 20 -26 8z"/>
<path d="M6335 5770 c-3 -6 -4 -24 0 -41 4 -16 2 -35 -4 -42 -11 -14 2 -43 16
-34 10 6 11 112 1 122 -3 4 -9 1 -13 -5z"/>
<path d="M6591 5634 c0 -11 3 -14 6 -6 3 7 2 16 -1 19 -3 4 -6 -2 -5 -13z"/>
<path d="M4284 5618 c-4 -6 -2 -14 4 -16 7 -2 12 -13 13 -25 1 -20 2 -20 9 3
4 14 8 31 9 38 1 15 -25 16 -35 0z"/>
<path d="M6325 5609 c-4 -5 -3 -18 0 -30 7 -19 7 -20 21 -2 7 10 14 21 14 24
0 12 -29 18 -35 8z"/>
<path d="M4042 5590 c0 -14 2 -19 5 -12 2 6 2 18 0 25 -3 6 -5 1 -5 -13z"/>
<path d="M4289 5531 c-21 -16 -22 -22 -11 -45 7 -15 20 -26 32 -26 11 0 20 -6
20 -12 0 -7 7 0 15 16 19 37 19 49 -3 69 -23 21 -25 21 -53 -2z"/>
<path d="M6293 5530 c-44 -18 -18 -95 27 -83 33 9 44 40 25 69 -17 26 -19 27
-52 14z"/>
<path d="M5627 5429 c-11 -7 -41 -8 -77 -4 -47 5 -67 3 -103 -13 -53 -23 -65
-43 -84 -132 -24 -110 -23 -115 16 -118 31 -3 33 -2 21 12 -7 9 -11 18 -9 19
2 1 17 9 33 17 27 14 29 13 56 -19 29 -34 26 -34 133 -28 39 2 48 11 20 21
-15 6 -15 9 5 28 l21 21 45 -41 c38 -35 52 -42 86 -42 47 0 50 5 12 24 -30 16
-71 80 -58 93 4 4 21 0 37 -10 33 -19 79 -23 79 -7 0 6 7 10 15 10 17 0 18 4
6 28 -5 9 -15 32 -21 50 -7 17 -17 32 -23 32 -6 0 -41 16 -78 35 -70 36 -101
42 -132 24z m-46 -191 c-1 -5 -1 -19 -1 -33 0 -18 -5 -25 -20 -25 -15 0 -20 7
-20 28 0 16 3 32 7 36 9 8 34 4 34 -6z"/>
<path d="M4336 5404 c-8 -20 1 -34 20 -34 18 0 18 24 0 39 -11 9 -15 8 -20 -5z"/>
<path d="M6272 5387 c-13 -15 1 -42 17 -33 13 9 15 33 2 40 -5 3 -13 0 -19 -7z"/>
<path d="M4364 5329 c-10 -17 13 -36 27 -22 12 12 4 33 -11 33 -5 0 -12 -5
-16 -11z"/>
<path d="M6246 5323 c-13 -13 -6 -42 9 -37 16 7 20 30 6 38 -4 3 -11 3 -15 -1z"/>
<path d="M4394 5258 c-4 -6 1 -17 12 -25 20 -15 30 -4 20 22 -6 18 -22 19 -32
3z"/>
<path d="M6213 5249 c-6 -6 -9 -17 -6 -24 2 -8 -7 -21 -21 -30 -29 -19 -32
-55 -4 -47 11 2 18 14 18 28 0 13 9 29 20 36 11 7 20 21 20 30 0 21 -11 23
-27 7z"/>
<path d="M4432 5188 c2 -12 11 -24 21 -26 24 -5 22 25 -4 38 -18 10 -20 9 -17
-12z"/>
<path d="M4476 5125 c-3 -9 1 -18 10 -22 19 -7 28 2 21 22 -8 19 -23 19 -31 0z"/>
<path d="M6127 5124 c-14 -14 -7 -35 11 -32 9 2 17 10 17 17 0 16 -18 25 -28
15z"/>
<path d="M4520 5061 c0 -15 6 -21 21 -21 14 0 19 5 17 17 -5 26 -38 29 -38 4z"/>
<path d="M4630 5077 c0 -2 15 -16 33 -33 l32 -29 -29 33 c-28 30 -36 37 -36
29z"/>
<path d="M5974 5048 l-29 -33 33 29 c17 17 32 31 32 33 0 8 -8 1 -36 -29z"/>
<path d="M6093 5068 c-28 -13 -30 -38 -4 -38 12 0 20 9 23 25 3 14 5 25 4 24
0 0 -11 -5 -23 -11z"/>
<path d="M4572 5004 c2 -11 11 -20 22 -22 13 -3 17 1 14 14 -2 11 -11 20 -22
22 -13 3 -17 -1 -14 -14z"/>
<path d="M6023 4995 c-3 -9 -3 -18 -1 -21 9 -9 38 8 38 22 0 19 -29 18 -37 -1z"/>
<path d="M4630 4951 c0 -12 9 -20 24 -23 24 -5 24 -4 9 19 -18 28 -33 30 -33
4z"/>
<path d="M5963 4945 c-3 -9 -3 -18 0 -22 10 -10 37 6 37 22 0 20 -29 20 -37 0z"/>
<path d="M4690 4906 c0 -18 16 -29 30 -21 13 8 1 35 -16 35 -8 0 -14 -6 -14
-14z"/>
<path d="M4582 4897 c4 -18 -52 -96 -69 -97 -21 0 -15 -16 12 -34 24 -16 25
-15 25 3 0 10 7 24 15 31 12 10 16 8 23 -10 l9 -23 17 24 c16 23 16 24 -4 27
-23 4 -25 13 -9 29 16 16 39 5 39 -18 0 -23 16 -25 24 -3 6 16 2 21 -57 65
-22 16 -28 18 -25 6z"/>
<path d="M5904 4899 c-7 -12 15 -31 28 -23 4 3 8 12 8 20 0 17 -26 19 -36 3z"/>
<path d="M6011 4872 c-13 -25 -14 -35 -2 -28 12 8 71 -67 71 -88 0 -15 2 -15
25 1 28 20 32 33 11 33 -8 0 -29 19 -47 43 -18 23 -36 46 -40 51 -4 4 -12 -1
-18 -12z"/>
<path d="M4747 4859 c3 -9 17 -19 33 -21 27 -4 27 -3 13 18 -17 27 -52 29 -46
3z"/>
<path d="M5840 4849 c-10 -18 -9 -20 12 -17 12 2 24 11 26 21 5 24 -25 22 -38
-4z"/>
<path d="M4835 4837 c-23 -17 -14 -63 15 -72 48 -15 85 51 41 75 -26 13 -33
13 -56 -3z"/>
<path d="M5722 4828 c-7 -7 -12 -22 -12 -35 0 -43 80 -42 88 1 8 37 -48 62
-76 34z"/>
<path d="M5910 4800 c-26 -26 -25 -36 4 -56 15 -9 23 -21 19 -30 -7 -20 15
-44 41 -44 49 0 65 62 21 82 -16 7 -25 19 -25 34 0 12 -7 25 -16 28 -22 8 -22
8 -44 -14z m40 -26 c0 -16 -16 -19 -25 -4 -8 13 4 32 16 25 5 -4 9 -13 9 -21z
m40 -54 c12 -7 12 -12 3 -21 -9 -9 -16 -9 -27 1 -26 21 -5 39 24 20z"/>
<path d="M4665 4775 c-31 -30 -33 -77 -5 -105 42 -42 130 -6 130 53 0 68 -78
100 -125 52z m79 -1 c39 -15 -5 -108 -48 -102 -29 4 -33 47 -6 81 23 28 29 31
54 21z"/>
<path d="M4961 4771 c-8 -5 -10 -14 -7 -20 9 -13 33 -15 40 -2 9 14 -18 31
-33 22z"/>
<path d="M5631 4756 c-9 -11 -8 -15 5 -20 20 -8 34 1 34 20 0 18 -24 18 -39 0z"/>
<path d="M5818 4749 c-35 -18 -47 -37 -32 -51 3 -4 15 3 27 15 20 20 21 20 28
1 4 -10 11 -41 14 -68 4 -30 10 -45 16 -39 8 8 -5 150 -14 159 -1 1 -19 -7
-39 -17z"/>
<path d="M6149 4753 c-13 -16 -12 -17 4 -4 16 13 21 21 13 21 -2 0 -10 -8 -17
-17z"/>
<path d="M5026 4732 c10 -12 24 -17 40 -14 23 4 23 5 7 18 -10 7 -28 14 -40
14 -21 0 -22 -1 -7 -18z"/>
<path d="M5561 4736 c-9 -11 -8 -15 5 -20 20 -8 39 7 30 23 -10 15 -21 14 -35
-3z"/>
<path d="M4824 4731 c3 -5 -1 -25 -9 -45 -32 -76 -11 -121 53 -114 21 2 32 13
50 51 15 33 28 47 42 47 11 0 20 -7 20 -16 0 -30 -23 -104 -32 -104 -5 0 -6
-4 -3 -10 3 -5 15 -10 26 -10 11 0 17 5 14 10 -8 13 4 70 14 70 4 0 18 -25 30
-56 13 -30 26 -52 30 -49 3 4 13 32 21 63 12 45 19 57 35 57 18 0 20 -6 18
-54 -2 -30 -8 -58 -15 -62 -20 -13 -4 -20 52 -22 46 -2 55 1 76 26 29 34 30
56 4 90 -15 19 -34 28 -68 32 -26 4 -61 10 -78 15 -29 7 -31 6 -31 -22 0 -52
-19 -54 -42 -4 -19 45 -35 57 -97 72 -19 5 -23 3 -18 -9 8 -22 -33 -97 -54
-97 -34 0 -41 19 -26 64 8 22 22 46 30 53 14 10 13 13 -5 22 -24 13 -44 14
-37 2z m404 -168 c3 -34 -28 -69 -54 -59 -13 5 -15 15 -9 54 4 26 9 51 12 55
10 16 48 -21 51 -50z"/>
<path d="M5102 4718 c5 -15 37 -18 41 -3 1 6 -9 12 -22 13 -16 3 -22 -1 -19
-10z"/>
<path d="M5484 4719 c-4 -6 -20 -8 -40 -4 -26 4 -34 3 -34 -9 0 -21 21 -31 30
-16 5 8 19 11 38 7 30 -6 60 12 45 26 -10 11 -31 8 -39 -4z"/>
<path d="M5172 4713 c-10 -4 -9 -8 5 -18 13 -9 22 -10 30 -3 24 19 -2 35 -35
21z"/>
<path d="M5261 4711 c-34 -22 17 -31 112 -22 5 1 5 6 1 12 -4 7 -20 8 -41 4
-19 -3 -40 -2 -47 4 -6 5 -18 6 -25 2z"/>
<path d="M5691 4686 c-10 -12 -8 -19 8 -35 11 -11 24 -39 27 -61 6 -36 9 -40
28 -34 27 8 34 16 20 21 -7 2 -22 31 -34 63 -24 63 -30 69 -49 46z"/>
<path d="M5437 4633 c-17 -4 -17 -6 -1 -17 12 -9 17 -29 18 -74 1 -50 4 -61
16 -58 8 3 29 7 46 11 62 12 89 81 49 125 -18 20 -79 26 -128 13z m104 -37
c15 -32 4 -73 -22 -81 -27 -9 -26 -9 -35 53 -6 51 -6 52 20 52 18 0 30 -7 37
-24z"/>
<path d="M5290 4620 c0 -5 5 -10 10 -10 15 0 13 -117 -2 -123 -7 -3 15 -6 50
-6 34 -1 62 3 62 8 0 5 3 18 7 28 6 17 6 17 -14 1 -30 -27 -63 -23 -63 7 0 25
23 35 35 15 11 -18 26 -10 23 13 -2 18 -8 21 -30 19 -23 -3 -28 1 -28 17 0 16
6 21 24 21 13 0 26 -6 29 -12 2 -7 7 -10 11 -7 3 3 4 14 0 23 -5 12 -19 16
-60 16 -30 0 -54 -4 -54 -10z"/>
<path d="M5198 4443 c6 -2 18 -2 25 0 6 3 1 5 -13 5 -14 0 -19 -2 -12 -5z"/>
<path d="M2813 9854 c4 -16 9 -50 13 -76 3 -27 10 -48 15 -48 12 0 99 54 99
61 0 8 -95 78 -117 86 -12 5 -14 0 -10 -23z"/>
<path d="M7930 9859 c-63 -26 -140 -146 -140 -219 0 -89 91 -152 173 -121 61
23 147 148 147 212 0 75 -113 155 -180 128z"/>
<path d="M1798 9132 c-29 -3 -138 -95 -138 -116 1 -13 226 -219 245 -224 18
-4 83 76 94 115 15 54 -10 122 -64 172 -24 22 -46 41 -47 41 -2 0 -17 3 -33 8
-17 4 -42 6 -57 4z"/>
<path d="M8795 9020 c-38 -15 -70 -30 -70 -33 0 -12 68 -88 77 -85 9 3 71 139
65 144 -1 1 -33 -11 -72 -26z"/>
<path d="M610 7063 c-44 -23 -72 -71 -72 -127 -1 -58 19 -88 79 -117 63 -31
184 -34 227 -6 55 37 72 141 30 188 -54 60 -201 95 -264 62z"/>
<path d="M1682 2769 c-23 -12 -62 -43 -87 -71 -69 -77 -72 -143 -10 -205 27
-27 40 -33 76 -33 86 0 193 94 213 187 15 66 -50 143 -119 143 -16 0 -49 -9
-73 -21z"/>
<path d="M7873 1914 c-52 -26 -68 -51 -67 -103 1 -81 73 -191 144 -221 44 -18
95 -5 135 36 28 28 35 42 35 75 0 44 -24 99 -65 148 -59 70 -126 94 -182 65z"/>
<path d="M6424 1270 c-23 -11 -46 -32 -53 -46 -27 -59 -3 -197 45 -253 77 -92
224 -37 224 84 0 67 -28 143 -68 187 -47 49 -90 58 -148 28z"/>
<path d="M4223 1117 c-23 -34 -40 -63 -38 -65 2 -3 29 -10 60 -17 48 -12 55
-11 55 2 0 29 -23 143 -29 143 -3 -1 -25 -29 -48 -63z"/>
<path d="M5240 959 l0 -171 74 4 c85 4 107 18 137 83 40 86 12 207 -55 239
-20 9 -60 16 -95 16 l-61 0 0 -171z"/>
</g>
</svg>
