<svg width="14" height="15" viewBox="0 0 14 15" fill="none" xmlns="http://www.w3.org/2000/svg">
<g id="Group 8">
<path id="Vector 5" d="M9.94735 4.53551V3.79867C9.94735 2.17088 8.62777 0.851303 6.99998 0.851303V0.851303C5.37219 0.851303 4.05261 2.17088 4.05261 3.79867V4.53551" stroke="white" stroke-width="1.47368" stroke-linecap="round"/>
<path id="Subtract" fill-rule="evenodd" clip-rule="evenodd" d="M1.01586 4.44612C0.368408 5.09357 0.368408 6.13562 0.368408 8.21973V8.95657C0.368408 11.7354 0.368408 13.1248 1.23167 13.988C2.09494 14.8513 3.48434 14.8513 6.26315 14.8513H7.73683C10.5156 14.8513 11.905 14.8513 12.7683 13.988C13.6316 13.1248 13.6316 11.7354 13.6316 8.95657V8.21973C13.6316 6.13562 13.6316 5.09357 12.9841 4.44612C12.3367 3.79868 11.2946 3.79868 9.21051 3.79868H4.78946C2.70536 3.79868 1.6633 3.79868 1.01586 4.44612ZM6.99998 9.69342C7.40693 9.69342 7.73683 9.36353 7.73683 8.95658C7.73683 8.54963 7.40693 8.21974 6.99998 8.21974C6.59304 8.21974 6.26314 8.54963 6.26314 8.95658C6.26314 9.36353 6.59304 9.69342 6.99998 9.69342ZM9.21051 8.95658C9.21051 9.91906 8.59539 10.7379 7.73683 11.0413V12.6408H6.26314V11.0413C5.40458 10.7379 4.78946 9.91906 4.78946 8.95658C4.78946 7.73574 5.77914 6.74606 6.99998 6.74606C8.22082 6.74606 9.21051 7.73574 9.21051 8.95658Z" fill="white"/>
</g>
</svg>
