<svg width="7" height="15" viewBox="0 0 7 15" fill="none" xmlns="http://www.w3.org/2000/svg">
<g id="Icon">
<path id="Rectangle 3988" d="M1.40751 3.47067C1.39189 3.41209 1.38408 3.3828 1.37849 3.3598C1.05879 2.04361 2.03796 0.76911 3.39208 0.738886C3.41574 0.738358 3.44606 0.738358 3.50668 0.738358C3.56731 0.738358 3.59763 0.738358 3.62129 0.738886C4.97541 0.76911 5.95458 2.04361 5.63488 3.3598C5.62929 3.3828 5.62148 3.41209 5.60586 3.47067L4.39579 8.00844C4.35561 8.1591 4.33552 8.23443 4.30453 8.29727C4.20745 8.4941 4.02447 8.63468 3.80927 8.67776C3.74057 8.69152 3.66261 8.69152 3.50668 8.69152C3.35076 8.69152 3.2728 8.69152 3.20409 8.67776C2.9889 8.63468 2.80591 8.4941 2.70884 8.29727C2.67785 8.23443 2.65776 8.1591 2.61758 8.00844L1.40751 3.47067Z" fill="white" stroke="white" stroke-width="1.4139"/>
<ellipse id="Ellipse 117" cx="3.5067" cy="12.6681" rx="1.4139" ry="1.59063" fill="white" stroke="white" stroke-width="1.4139"/>
</g>
</svg>
